<?xml version="1.0" encoding="utf-8" ?>
<svg baseProfile="full" height="500" version="1.1" width="970" xmlns="http://www.w3.org/2000/svg" xmlns:ev="http://www.w3.org/2001/xml-events" xmlns:xlink="http://www.w3.org/1999/xlink"><defs /><line stroke="black" stroke-opacity="0.1" stroke-width="0.0" x1="453.0" x2="448.5" y1="3.0" y2="7.5" /><line stroke="black" stroke-opacity="0.1" stroke-width="0.45" x1="453.0" x2="453.0" y1="3.0" y2="7.5" /><line stroke="black" stroke-opacity="0.1" stroke-width="0.0" x1="453.0" x2="457.5" y1="3.0" y2="7.5" /><circle cx="453.0" cy="3.0" fill="rgb(230,69,69)" fill-opacity="0.7" r="1.7999999999999998" stroke="black" stroke-opacity="0.7" stroke-width="0.2" /><line stroke="black" stroke-opacity="0.1" stroke-width="0.0" x1="453.0" x2="448.5" y1="7.5" y2="12.0" /><line stroke="black" stroke-opacity="0.1" stroke-width="0.45" x1="453.0" x2="453.0" y1="7.5" y2="12.0" /><line stroke="black" stroke-opacity="0.1" stroke-width="0.0" x1="453.0" x2="457.5" y1="7.5" y2="12.0" /><circle cx="453.0" cy="7.5" fill="rgb(230,69,69)" fill-opacity="0.7" r="1.7999999999999998" stroke="black" stroke-opacity="0.7" stroke-width="0.2" /><line stroke="black" stroke-opacity="0.1" stroke-width="0.0" x1="453.0" x2="448.5" y1="12.0" y2="16.5" /><line stroke="black" stroke-opacity="0.1" stroke-width="0.45" x1="453.0" x2="453.0" y1="12.0" y2="16.5" /><line stroke="black" stroke-opacity="0.1" stroke-width="0.0" x1="453.0" x2="457.5" y1="12.0" y2="16.5" /><circle cx="453.0" cy="12.0" fill="rgb(230,69,69)" fill-opacity="0.7" r="1.7999999999999998" stroke="black" stroke-opacity="0.7" stroke-width="0.2" /><line stroke="black" stroke-opacity="0.1" stroke-width="0.0" x1="453.0" x2="448.5" y1="16.5" y2="21.0" /><line stroke="black" stroke-opacity="0.1" stroke-width="0.45" x1="453.0" x2="453.0" y1="16.5" y2="21.0" /><line stroke="black" stroke-opacity="0.1" stroke-width="0.0" x1="453.0" x2="457.5" y1="16.5" y2="21.0" /><circle cx="453.0" cy="16.5" fill="rgb(230,69,69)" fill-opacity="0.7" r="1.7999999999999998" stroke="black" stroke-opacity="0.7" stroke-width="0.2" /><line stroke="black" stroke-opacity="0.1" stroke-width="0.0" x1="453.0" x2="448.5" y1="21.0" y2="25.5" /><line stroke="black" stroke-opacity="0.1" stroke-width="0.45" x1="453.0" x2="453.0" y1="21.0" y2="25.5" /><line stroke="black" stroke-opacity="0.1" stroke-width="0.0" x1="453.0" x2="457.5" y1="21.0" y2="25.5" /><circle cx="453.0" cy="21.0" fill="rgb(230,69,69)" fill-opacity="0.7" r="1.7999999999999998" stroke="black" stroke-opacity="0.7" stroke-width="0.2" /><line stroke="black" stroke-opacity="0.1" stroke-width="0.0" x1="453.0" x2="448.5" y1="25.5" y2="30.0" /><line stroke="black" stroke-opacity="0.1" stroke-width="0.45" x1="453.0" x2="453.0" y1="25.5" y2="30.0" /><line stroke="black" stroke-opacity="0.1" stroke-width="0.0" x1="453.0" x2="457.5" y1="25.5" y2="30.0" /><circle cx="453.0" cy="25.5" fill="rgb(230,69,69)" fill-opacity="0.7" r="1.7999999999999998" stroke="black" stroke-opacity="0.7" stroke-width="0.2" /><line stroke="black" stroke-opacity="0.1" stroke-width="0.0" x1="453.0" x2="448.5" y1="30.0" y2="34.5" /><line stroke="black" stroke-opacity="0.1" stroke-width="0.45" x1="453.0" x2="453.0" y1="30.0" y2="34.5" /><line stroke="black" stroke-opacity="0.1" stroke-width="0.0" x1="453.0" x2="457.5" y1="30.0" y2="34.5" /><circle cx="453.0" cy="30.0" fill="rgb(230,69,69)" fill-opacity="0.7" r="1.7999999999999998" stroke="black" stroke-opacity="0.7" stroke-width="0.2" /><line stroke="black" stroke-opacity="0.1" stroke-width="0.0" x1="453.0" x2="448.5" y1="34.5" y2="39.0" /><line stroke="black" stroke-opacity="0.1" stroke-width="0.45" x1="453.0" x2="453.0" y1="34.5" y2="39.0" /><line stroke="black" stroke-opacity="0.1" stroke-width="0.0" x1="453.0" x2="457.5" y1="34.5" y2="39.0" /><circle cx="453.0" cy="34.5" fill="rgb(230,69,69)" fill-opacity="0.7" r="1.7999999999999998" stroke="black" stroke-opacity="0.7" stroke-width="0.2" /><line stroke="black" stroke-opacity="0.1" stroke-width="0.0" x1="453.0" x2="448.5" y1="39.0" y2="43.5" /><line stroke="black" stroke-opacity="0.1" stroke-width="0.45" x1="453.0" x2="453.0" y1="39.0" y2="43.5" /><line stroke="black" stroke-opacity="0.1" stroke-width="0.0" x1="453.0" x2="457.5" y1="39.0" y2="43.5" /><circle cx="453.0" cy="39.0" fill="rgb(230,69,69)" fill-opacity="0.7" r="1.7999999999999998" stroke="black" stroke-opacity="0.7" stroke-width="0.2" /><line stroke="black" stroke-opacity="0.1" stroke-width="0.0" x1="453.0" x2="448.5" y1="43.5" y2="48.0" /><line stroke="black" stroke-opacity="0.1" stroke-width="0.45" x1="453.0" x2="453.0" y1="43.5" y2="48.0" /><line stroke="black" stroke-opacity="0.1" stroke-width="0.0" x1="453.0" x2="457.5" y1="43.5" y2="48.0" /><circle cx="453.0" cy="43.5" fill="rgb(230,69,69)" fill-opacity="0.7" r="1.7999999999999998" stroke="black" stroke-opacity="0.7" stroke-width="0.2" /><line stroke="black" stroke-opacity="0.1" stroke-width="0.0" x1="453.0" x2="448.5" y1="48.0" y2="52.5" /><line stroke="black" stroke-opacity="0.1" stroke-width="0.45" x1="453.0" x2="453.0" y1="48.0" y2="52.5" /><line stroke="black" stroke-opacity="0.1" stroke-width="0.0" x1="453.0" x2="457.5" y1="48.0" y2="52.5" /><circle cx="453.0" cy="48.0" fill="rgb(230,69,69)" fill-opacity="0.7" r="1.7999999999999998" stroke="black" stroke-opacity="0.7" stroke-width="0.2" /><line stroke="black" stroke-opacity="0.1" stroke-width="0.0" x1="453.0" x2="448.5" y1="52.5" y2="57.0" /><line stroke="black" stroke-opacity="0.1" stroke-width="0.45" x1="453.0" x2="453.0" y1="52.5" y2="57.0" /><line stroke="black" stroke-opacity="0.1" stroke-width="0.0" x1="453.0" x2="457.5" y1="52.5" y2="57.0" /><circle cx="453.0" cy="52.5" fill="rgb(230,69,69)" fill-opacity="0.7" r="1.7999999999999998" stroke="black" stroke-opacity="0.7" stroke-width="0.2" /><line stroke="black" stroke-opacity="0.1" stroke-width="0.0" x1="453.0" x2="448.5" y1="57.0" y2="61.5" /><line stroke="black" stroke-opacity="0.1" stroke-width="0.45" x1="453.0" x2="453.0" y1="57.0" y2="61.5" /><line stroke="black" stroke-opacity="0.1" stroke-width="0.0" x1="453.0" x2="457.5" y1="57.0" y2="61.5" /><circle cx="453.0" cy="57.0" fill="rgb(230,69,69)" fill-opacity="0.7" r="1.7999999999999998" stroke="black" stroke-opacity="0.7" stroke-width="0.2" /><line stroke="black" stroke-opacity="0.1" stroke-width="0.0" x1="453.0" x2="448.5" y1="61.5" y2="66.0" /><line stroke="black" stroke-opacity="0.1" stroke-width="0.45" x1="453.0" x2="453.0" y1="61.5" y2="66.0" /><line stroke="black" stroke-opacity="0.1" stroke-width="0.0" x1="453.0" x2="457.5" y1="61.5" y2="66.0" /><circle cx="453.0" cy="61.5" fill="rgb(230,69,69)" fill-opacity="0.7" r="1.7999999999999998" stroke="black" stroke-opacity="0.7" stroke-width="0.2" /><line stroke="black" stroke-opacity="0.1" stroke-width="0.0" x1="453.0" x2="448.5" y1="66.0" y2="70.5" /><line stroke="black" stroke-opacity="0.1" stroke-width="0.45" x1="453.0" x2="453.0" y1="66.0" y2="70.5" /><line stroke="black" stroke-opacity="0.1" stroke-width="0.0" x1="453.0" x2="457.5" y1="66.0" y2="70.5" /><circle cx="453.0" cy="66.0" fill="rgb(230,69,69)" fill-opacity="0.7" r="1.7999999999999998" stroke="black" stroke-opacity="0.7" stroke-width="0.2" /><line stroke="black" stroke-opacity="0.1" stroke-width="0.0" x1="453.0" x2="448.5" y1="70.5" y2="75.0" /><line stroke="black" stroke-opacity="0.1" stroke-width="0.45" x1="453.0" x2="453.0" y1="70.5" y2="75.0" /><line stroke="black" stroke-opacity="0.1" stroke-width="0.0" x1="453.0" x2="457.5" y1="70.5" y2="75.0" /><circle cx="453.0" cy="70.5" fill="rgb(230,69,69)" fill-opacity="0.7" r="1.7999999999999998" stroke="black" stroke-opacity="0.7" stroke-width="0.2" /><line stroke="black" stroke-opacity="0.1" stroke-width="0.0" x1="453.0" x2="448.5" y1="75.0" y2="79.5" /><line stroke="black" stroke-opacity="0.1" stroke-width="0.45" x1="453.0" x2="453.0" y1="75.0" y2="79.5" /><line stroke="black" stroke-opacity="0.1" stroke-width="0.0" x1="453.0" x2="457.5" y1="75.0" y2="79.5" /><circle cx="453.0" cy="75.0" fill="rgb(230,69,69)" fill-opacity="0.7" r="1.7999999999999998" stroke="black" stroke-opacity="0.7" stroke-width="0.2" /><line stroke="black" stroke-opacity="0.1" stroke-width="0.0" x1="453.0" x2="448.5" y1="79.5" y2="84.0" /><line stroke="black" stroke-opacity="0.1" stroke-width="0.45" x1="453.0" x2="453.0" y1="79.5" y2="84.0" /><line stroke="black" stroke-opacity="0.1" stroke-width="0.0" x1="453.0" x2="457.5" y1="79.5" y2="84.0" /><circle cx="453.0" cy="79.5" fill="rgb(230,69,69)" fill-opacity="0.7" r="1.7999999999999998" stroke="black" stroke-opacity="0.7" stroke-width="0.2" /><line stroke="black" stroke-opacity="0.1" stroke-width="0.0" x1="453.0" x2="448.5" y1="84.0" y2="88.5" /><line stroke="black" stroke-opacity="0.1" stroke-width="0.45" x1="453.0" x2="453.0" y1="84.0" y2="88.5" /><line stroke="black" stroke-opacity="0.1" stroke-width="0.0" x1="453.0" x2="457.5" y1="84.0" y2="88.5" /><circle cx="453.0" cy="84.0" fill="rgb(230,69,69)" fill-opacity="0.7" r="1.7999999999999998" stroke="black" stroke-opacity="0.7" stroke-width="0.2" /><line stroke="black" stroke-opacity="0.1" stroke-width="0.0" x1="453.0" x2="448.5" y1="88.5" y2="93.0" /><line stroke="black" stroke-opacity="0.1" stroke-width="0.45" x1="453.0" x2="453.0" y1="88.5" y2="93.0" /><line stroke="black" stroke-opacity="0.1" stroke-width="0.0" x1="453.0" x2="457.5" y1="88.5" y2="93.0" /><circle cx="453.0" cy="88.5" fill="rgb(230,69,69)" fill-opacity="0.7" r="1.7999999999999998" stroke="black" stroke-opacity="0.7" stroke-width="0.2" /><line stroke="black" stroke-opacity="0.1" stroke-width="0.0" x1="453.0" x2="448.5" y1="93.0" y2="97.5" /><line stroke="black" stroke-opacity="0.1" stroke-width="0.45" x1="453.0" x2="453.0" y1="93.0" y2="97.5" /><line stroke="black" stroke-opacity="0.1" stroke-width="0.0" x1="453.0" x2="457.5" y1="93.0" y2="97.5" /><circle cx="453.0" cy="93.0" fill="rgb(230,69,69)" fill-opacity="0.7" r="1.7999999999999998" stroke="black" stroke-opacity="0.7" stroke-width="0.2" /><line stroke="black" stroke-opacity="0.1" stroke-width="0.0" x1="453.0" x2="448.5" y1="97.5" y2="102.0" /><line stroke="black" stroke-opacity="0.1" stroke-width="0.45" x1="453.0" x2="453.0" y1="97.5" y2="102.0" /><line stroke="black" stroke-opacity="0.1" stroke-width="0.0" x1="453.0" x2="457.5" y1="97.5" y2="102.0" /><circle cx="453.0" cy="97.5" fill="rgb(230,69,69)" fill-opacity="0.7" r="1.7999999999999998" stroke="black" stroke-opacity="0.7" stroke-width="0.2" /><line stroke="black" stroke-opacity="0.1" stroke-width="0.0" x1="453.0" x2="448.5" y1="102.0" y2="106.5" /><line stroke="black" stroke-opacity="0.1" stroke-width="0.45" x1="453.0" x2="453.0" y1="102.0" y2="106.5" /><line stroke="black" stroke-opacity="0.1" stroke-width="0.0" x1="453.0" x2="457.5" y1="102.0" y2="106.5" /><circle cx="453.0" cy="102.0" fill="rgb(230,69,69)" fill-opacity="0.7" r="1.7999999999999998" stroke="black" stroke-opacity="0.7" stroke-width="0.2" /><line stroke="black" stroke-opacity="0.1" stroke-width="0.0" x1="453.0" x2="448.5" y1="106.5" y2="111.0" /><line stroke="black" stroke-opacity="0.1" stroke-width="0.45" x1="453.0" x2="453.0" y1="106.5" y2="111.0" /><line stroke="black" stroke-opacity="0.1" stroke-width="0.0" x1="453.0" x2="457.5" y1="106.5" y2="111.0" /><circle cx="453.0" cy="106.5" fill="rgb(230,69,69)" fill-opacity="0.7" r="1.7999999999999998" stroke="black" stroke-opacity="0.7" stroke-width="0.2" /><line stroke="black" stroke-opacity="0.1" stroke-width="0.0" x1="453.0" x2="448.5" y1="111.0" y2="115.5" /><line stroke="black" stroke-opacity="0.1" stroke-width="0.45" x1="453.0" x2="453.0" y1="111.0" y2="115.5" /><line stroke="black" stroke-opacity="0.1" stroke-width="0.0" x1="453.0" x2="457.5" y1="111.0" y2="115.5" /><circle cx="453.0" cy="111.0" fill="rgb(230,69,69)" fill-opacity="0.7" r="1.7999999999999998" stroke="black" stroke-opacity="0.7" stroke-width="0.2" /><line stroke="black" stroke-opacity="0.1" stroke-width="0.0" x1="453.0" x2="448.5" y1="115.5" y2="120.0" /><line stroke="black" stroke-opacity="0.1" stroke-width="0.45" x1="453.0" x2="453.0" y1="115.5" y2="120.0" /><line stroke="black" stroke-opacity="0.1" stroke-width="0.0" x1="453.0" x2="457.5" y1="115.5" y2="120.0" /><circle cx="453.0" cy="115.5" fill="rgb(230,69,69)" fill-opacity="0.7" r="1.7999999999999998" stroke="black" stroke-opacity="0.7" stroke-width="0.2" /><line stroke="black" stroke-opacity="0.1" stroke-width="0.0" x1="453.0" x2="448.5" y1="120.0" y2="124.5" /><line stroke="black" stroke-opacity="0.1" stroke-width="0.45" x1="453.0" x2="453.0" y1="120.0" y2="124.5" /><line stroke="black" stroke-opacity="0.1" stroke-width="0.0" x1="453.0" x2="457.5" y1="120.0" y2="124.5" /><circle cx="453.0" cy="120.0" fill="rgb(230,69,69)" fill-opacity="0.7" r="1.7999999999999998" stroke="black" stroke-opacity="0.7" stroke-width="0.2" /><line stroke="black" stroke-opacity="0.1" stroke-width="0.0" x1="453.0" x2="448.5" y1="124.5" y2="129.0" /><line stroke="black" stroke-opacity="0.1" stroke-width="0.45" x1="453.0" x2="453.0" y1="124.5" y2="129.0" /><line stroke="black" stroke-opacity="0.1" stroke-width="0.0" x1="453.0" x2="457.5" y1="124.5" y2="129.0" /><circle cx="453.0" cy="124.5" fill="rgb(230,69,69)" fill-opacity="0.7" r="1.7999999999999998" stroke="black" stroke-opacity="0.7" stroke-width="0.2" /><line stroke="black" stroke-opacity="0.1" stroke-width="0.0" x1="453.0" x2="448.5" y1="129.0" y2="133.5" /><line stroke="black" stroke-opacity="0.1" stroke-width="0.45" x1="453.0" x2="453.0" y1="129.0" y2="133.5" /><line stroke="black" stroke-opacity="0.1" stroke-width="0.0" x1="453.0" x2="457.5" y1="129.0" y2="133.5" /><circle cx="453.0" cy="129.0" fill="rgb(230,69,69)" fill-opacity="0.7" r="1.7999999999999998" stroke="black" stroke-opacity="0.7" stroke-width="0.2" /><line stroke="black" stroke-opacity="0.1" stroke-width="0.0" x1="453.0" x2="448.5" y1="133.5" y2="138.0" /><line stroke="black" stroke-opacity="0.1" stroke-width="0.45" x1="453.0" x2="453.0" y1="133.5" y2="138.0" /><line stroke="black" stroke-opacity="0.1" stroke-width="0.0" x1="453.0" x2="457.5" y1="133.5" y2="138.0" /><circle cx="453.0" cy="133.5" fill="rgb(230,69,69)" fill-opacity="0.7" r="1.7999999999999998" stroke="black" stroke-opacity="0.7" stroke-width="0.2" /><line stroke="black" stroke-opacity="0.1" stroke-width="0.0" x1="453.0" x2="448.5" y1="138.0" y2="142.5" /><line stroke="black" stroke-opacity="0.1" stroke-width="0.45" x1="453.0" x2="453.0" y1="138.0" y2="142.5" /><line stroke="black" stroke-opacity="0.1" stroke-width="0.0" x1="453.0" x2="457.5" y1="138.0" y2="142.5" /><circle cx="453.0" cy="138.0" fill="rgb(230,69,69)" fill-opacity="0.7" r="1.7999999999999998" stroke="black" stroke-opacity="0.7" stroke-width="0.2" /><line stroke="black" stroke-opacity="0.1" stroke-width="0.0" x1="453.0" x2="448.5" y1="142.5" y2="147.0" /><line stroke="black" stroke-opacity="0.1" stroke-width="0.45" x1="453.0" x2="453.0" y1="142.5" y2="147.0" /><line stroke="black" stroke-opacity="0.1" stroke-width="0.0" x1="453.0" x2="457.5" y1="142.5" y2="147.0" /><circle cx="453.0" cy="142.5" fill="rgb(230,69,69)" fill-opacity="0.7" r="1.7999999999999998" stroke="black" stroke-opacity="0.7" stroke-width="0.2" /><line stroke="black" stroke-opacity="0.1" stroke-width="0.0" x1="453.0" x2="448.5" y1="147.0" y2="151.5" /><line stroke="black" stroke-opacity="0.1" stroke-width="0.45" x1="453.0" x2="453.0" y1="147.0" y2="151.5" /><line stroke="black" stroke-opacity="0.1" stroke-width="0.0" x1="453.0" x2="457.5" y1="147.0" y2="151.5" /><circle cx="453.0" cy="147.0" fill="rgb(230,69,69)" fill-opacity="0.7" r="1.7999999999999998" stroke="black" stroke-opacity="0.7" stroke-width="0.2" /><line stroke="black" stroke-opacity="0.1" stroke-width="0.0" x1="453.0" x2="448.5" y1="151.5" y2="156.0" /><line stroke="black" stroke-opacity="0.1" stroke-width="0.45" x1="453.0" x2="453.0" y1="151.5" y2="156.0" /><line stroke="black" stroke-opacity="0.1" stroke-width="0.0" x1="453.0" x2="457.5" y1="151.5" y2="156.0" /><circle cx="453.0" cy="151.5" fill="rgb(230,69,69)" fill-opacity="0.7" r="1.7999999999999998" stroke="black" stroke-opacity="0.7" stroke-width="0.2" /><line stroke="black" stroke-opacity="0.1" stroke-width="0.0" x1="453.0" x2="448.5" y1="156.0" y2="160.5" /><line stroke="black" stroke-opacity="0.1" stroke-width="0.45" x1="453.0" x2="453.0" y1="156.0" y2="160.5" /><line stroke="black" stroke-opacity="0.1" stroke-width="0.0" x1="453.0" x2="457.5" y1="156.0" y2="160.5" /><circle cx="453.0" cy="156.0" fill="rgb(230,69,69)" fill-opacity="0.7" r="1.7999999999999998" stroke="black" stroke-opacity="0.7" stroke-width="0.2" /><line stroke="black" stroke-opacity="0.1" stroke-width="0.0" x1="453.0" x2="448.5" y1="160.5" y2="165.0" /><line stroke="black" stroke-opacity="0.1" stroke-width="0.45" x1="453.0" x2="453.0" y1="160.5" y2="165.0" /><line stroke="black" stroke-opacity="0.1" stroke-width="0.0" x1="453.0" x2="457.5" y1="160.5" y2="165.0" /><circle cx="453.0" cy="160.5" fill="rgb(230,69,69)" fill-opacity="0.7" r="1.7999999999999998" stroke="black" stroke-opacity="0.7" stroke-width="0.2" /><line stroke="black" stroke-opacity="0.1" stroke-width="0.0" x1="453.0" x2="448.5" y1="165.0" y2="169.5" /><line stroke="black" stroke-opacity="0.1" stroke-width="0.45" x1="453.0" x2="453.0" y1="165.0" y2="169.5" /><line stroke="black" stroke-opacity="0.1" stroke-width="0.0" x1="453.0" x2="457.5" y1="165.0" y2="169.5" /><circle cx="453.0" cy="165.0" fill="rgb(230,69,69)" fill-opacity="0.7" r="1.7999999999999998" stroke="black" stroke-opacity="0.7" stroke-width="0.2" /><line stroke="black" stroke-opacity="0.1" stroke-width="0.0" x1="453.0" x2="448.5" y1="169.5" y2="174.0" /><line stroke="black" stroke-opacity="0.1" stroke-width="0.45" x1="453.0" x2="453.0" y1="169.5" y2="174.0" /><line stroke="black" stroke-opacity="0.1" stroke-width="0.0" x1="453.0" x2="457.5" y1="169.5" y2="174.0" /><circle cx="453.0" cy="169.5" fill="rgb(230,69,69)" fill-opacity="0.7" r="1.7999999999999998" stroke="black" stroke-opacity="0.7" stroke-width="0.2" /><line stroke="black" stroke-opacity="0.1" stroke-width="0.0" x1="453.0" x2="448.5" y1="174.0" y2="178.5" /><line stroke="black" stroke-opacity="0.1" stroke-width="0.45" x1="453.0" x2="453.0" y1="174.0" y2="178.5" /><line stroke="black" stroke-opacity="0.1" stroke-width="0.0" x1="453.0" x2="457.5" y1="174.0" y2="178.5" /><circle cx="453.0" cy="174.0" fill="rgb(230,69,69)" fill-opacity="0.7" r="1.7999999999999998" stroke="black" stroke-opacity="0.7" stroke-width="0.2" /><line stroke="black" stroke-opacity="0.1" stroke-width="0.0" x1="453.0" x2="448.5" y1="178.5" y2="183.0" /><line stroke="black" stroke-opacity="0.1" stroke-width="0.45" x1="453.0" x2="453.0" y1="178.5" y2="183.0" /><line stroke="black" stroke-opacity="0.1" stroke-width="0.0" x1="453.0" x2="457.5" y1="178.5" y2="183.0" /><circle cx="453.0" cy="178.5" fill="rgb(230,69,69)" fill-opacity="0.7" r="1.7999999999999998" stroke="black" stroke-opacity="0.7" stroke-width="0.2" /><line stroke="black" stroke-opacity="0.1" stroke-width="0.0" x1="453.0" x2="448.5" y1="183.0" y2="187.5" /><line stroke="black" stroke-opacity="0.1" stroke-width="0.45" x1="453.0" x2="453.0" y1="183.0" y2="187.5" /><line stroke="black" stroke-opacity="0.1" stroke-width="0.0" x1="453.0" x2="457.5" y1="183.0" y2="187.5" /><circle cx="453.0" cy="183.0" fill="rgb(230,69,69)" fill-opacity="0.7" r="1.7999999999999998" stroke="black" stroke-opacity="0.7" stroke-width="0.2" /><line stroke="black" stroke-opacity="0.1" stroke-width="0.0" x1="453.0" x2="448.5" y1="187.5" y2="192.0" /><line stroke="black" stroke-opacity="0.1" stroke-width="0.45" x1="453.0" x2="453.0" y1="187.5" y2="192.0" /><line stroke="black" stroke-opacity="0.1" stroke-width="0.0" x1="453.0" x2="457.5" y1="187.5" y2="192.0" /><circle cx="453.0" cy="187.5" fill="rgb(230,69,69)" fill-opacity="0.7" r="1.7999999999999998" stroke="black" stroke-opacity="0.7" stroke-width="0.2" /><line stroke="black" stroke-opacity="0.1" stroke-width="0.0" x1="453.0" x2="448.5" y1="192.0" y2="196.5" /><line stroke="black" stroke-opacity="0.1" stroke-width="0.45" x1="453.0" x2="453.0" y1="192.0" y2="196.5" /><line stroke="black" stroke-opacity="0.1" stroke-width="0.0" x1="453.0" x2="457.5" y1="192.0" y2="196.5" /><circle cx="453.0" cy="192.0" fill="rgb(230,69,69)" fill-opacity="0.7" r="1.7999999999999998" stroke="black" stroke-opacity="0.7" stroke-width="0.2" /><line stroke="black" stroke-opacity="0.1" stroke-width="0.0" x1="453.0" x2="448.5" y1="196.5" y2="201.0" /><line stroke="black" stroke-opacity="0.1" stroke-width="0.45" x1="453.0" x2="453.0" y1="196.5" y2="201.0" /><line stroke="black" stroke-opacity="0.1" stroke-width="0.0" x1="453.0" x2="457.5" y1="196.5" y2="201.0" /><circle cx="453.0" cy="196.5" fill="rgb(230,69,69)" fill-opacity="0.7" r="1.7999999999999998" stroke="black" stroke-opacity="0.7" stroke-width="0.2" /><line stroke="black" stroke-opacity="0.1" stroke-width="0.0" x1="453.0" x2="448.5" y1="201.0" y2="205.5" /><line stroke="black" stroke-opacity="0.1" stroke-width="0.45" x1="453.0" x2="453.0" y1="201.0" y2="205.5" /><line stroke="black" stroke-opacity="0.1" stroke-width="0.0" x1="453.0" x2="457.5" y1="201.0" y2="205.5" /><circle cx="453.0" cy="201.0" fill="rgb(230,69,69)" fill-opacity="0.7" r="1.7999999999999998" stroke="black" stroke-opacity="0.7" stroke-width="0.2" /><line stroke="black" stroke-opacity="0.1" stroke-width="0.0" x1="453.0" x2="448.5" y1="205.5" y2="210.0" /><line stroke="black" stroke-opacity="0.1" stroke-width="0.45" x1="453.0" x2="453.0" y1="205.5" y2="210.0" /><line stroke="black" stroke-opacity="0.1" stroke-width="0.0" x1="453.0" x2="457.5" y1="205.5" y2="210.0" /><circle cx="453.0" cy="205.5" fill="rgb(230,69,69)" fill-opacity="0.7" r="1.7999999999999998" stroke="black" stroke-opacity="0.7" stroke-width="0.2" /><line stroke="black" stroke-opacity="0.1" stroke-width="0.0" x1="453.0" x2="448.5" y1="210.0" y2="214.5" /><line stroke="black" stroke-opacity="0.1" stroke-width="0.45" x1="453.0" x2="453.0" y1="210.0" y2="214.5" /><line stroke="black" stroke-opacity="0.1" stroke-width="0.0" x1="453.0" x2="457.5" y1="210.0" y2="214.5" /><circle cx="453.0" cy="210.0" fill="rgb(230,69,69)" fill-opacity="0.7" r="1.7999999999999998" stroke="black" stroke-opacity="0.7" stroke-width="0.2" /><line stroke="black" stroke-opacity="0.1" stroke-width="0.0" x1="453.0" x2="448.5" y1="214.5" y2="219.0" /><line stroke="black" stroke-opacity="0.1" stroke-width="0.45" x1="453.0" x2="453.0" y1="214.5" y2="219.0" /><line stroke="black" stroke-opacity="0.1" stroke-width="0.0" x1="453.0" x2="457.5" y1="214.5" y2="219.0" /><circle cx="453.0" cy="214.5" fill="rgb(230,69,69)" fill-opacity="0.7" r="1.7999999999999998" stroke="black" stroke-opacity="0.7" stroke-width="0.2" /><line stroke="black" stroke-opacity="0.1" stroke-width="0.0" x1="453.0" x2="448.5" y1="219.0" y2="223.5" /><line stroke="black" stroke-opacity="0.1" stroke-width="0.45" x1="453.0" x2="453.0" y1="219.0" y2="223.5" /><line stroke="black" stroke-opacity="0.1" stroke-width="0.0" x1="453.0" x2="457.5" y1="219.0" y2="223.5" /><circle cx="453.0" cy="219.0" fill="rgb(230,69,69)" fill-opacity="0.7" r="1.7999999999999998" stroke="black" stroke-opacity="0.7" stroke-width="0.2" /><line stroke="black" stroke-opacity="0.1" stroke-width="0.0" x1="453.0" x2="448.5" y1="223.5" y2="228.0" /><line stroke="black" stroke-opacity="0.1" stroke-width="0.45" x1="453.0" x2="453.0" y1="223.5" y2="228.0" /><line stroke="black" stroke-opacity="0.1" stroke-width="0.0" x1="453.0" x2="457.5" y1="223.5" y2="228.0" /><circle cx="453.0" cy="223.5" fill="rgb(230,69,69)" fill-opacity="0.7" r="1.7999999999999998" stroke="black" stroke-opacity="0.7" stroke-width="0.2" /><line stroke="black" stroke-opacity="0.1" stroke-width="0.0" x1="453.0" x2="448.5" y1="228.0" y2="232.5" /><line stroke="black" stroke-opacity="0.1" stroke-width="0.45" x1="453.0" x2="453.0" y1="228.0" y2="232.5" /><line stroke="black" stroke-opacity="0.1" stroke-width="0.0" x1="453.0" x2="457.5" y1="228.0" y2="232.5" /><circle cx="453.0" cy="228.0" fill="rgb(230,69,69)" fill-opacity="0.7" r="1.7999999999999998" stroke="black" stroke-opacity="0.7" stroke-width="0.2" /><line stroke="black" stroke-opacity="0.1" stroke-width="0.0" x1="453.0" x2="448.5" y1="232.5" y2="237.0" /><line stroke="black" stroke-opacity="0.1" stroke-width="0.45" x1="453.0" x2="453.0" y1="232.5" y2="237.0" /><line stroke="black" stroke-opacity="0.1" stroke-width="0.0" x1="453.0" x2="457.5" y1="232.5" y2="237.0" /><circle cx="453.0" cy="232.5" fill="rgb(230,69,69)" fill-opacity="0.7" r="1.7999999999999998" stroke="black" stroke-opacity="0.7" stroke-width="0.2" /><line stroke="black" stroke-opacity="0.1" stroke-width="0.0" x1="453.0" x2="448.5" y1="237.0" y2="241.5" /><line stroke="black" stroke-opacity="0.1" stroke-width="0.45" x1="453.0" x2="453.0" y1="237.0" y2="241.5" /><line stroke="black" stroke-opacity="0.1" stroke-width="0.0" x1="453.0" x2="457.5" y1="237.0" y2="241.5" /><circle cx="453.0" cy="237.0" fill="rgb(230,69,69)" fill-opacity="0.7" r="1.7999999999999998" stroke="black" stroke-opacity="0.7" stroke-width="0.2" /><line stroke="black" stroke-opacity="0.1" stroke-width="0.0" x1="453.0" x2="448.5" y1="241.5" y2="246.0" /><line stroke="black" stroke-opacity="0.1" stroke-width="0.45" x1="453.0" x2="453.0" y1="241.5" y2="246.0" /><line stroke="black" stroke-opacity="0.1" stroke-width="0.0" x1="453.0" x2="457.5" y1="241.5" y2="246.0" /><circle cx="453.0" cy="241.5" fill="rgb(230,69,69)" fill-opacity="0.7" r="1.7999999999999998" stroke="black" stroke-opacity="0.7" stroke-width="0.2" /><line stroke="black" stroke-opacity="0.1" stroke-width="0.0" x1="453.0" x2="448.5" y1="246.0" y2="250.5" /><line stroke="black" stroke-opacity="0.1" stroke-width="0.45" x1="453.0" x2="453.0" y1="246.0" y2="250.5" /><line stroke="black" stroke-opacity="0.1" stroke-width="0.0" x1="453.0" x2="457.5" y1="246.0" y2="250.5" /><circle cx="453.0" cy="246.0" fill="rgb(230,69,69)" fill-opacity="0.7" r="1.7999999999999998" stroke="black" stroke-opacity="0.7" stroke-width="0.2" /><line stroke="black" stroke-opacity="0.1" stroke-width="0.0" x1="453.0" x2="448.5" y1="250.5" y2="255.0" /><line stroke="black" stroke-opacity="0.1" stroke-width="0.45" x1="453.0" x2="453.0" y1="250.5" y2="255.0" /><line stroke="black" stroke-opacity="0.1" stroke-width="0.0" x1="453.0" x2="457.5" y1="250.5" y2="255.0" /><circle cx="453.0" cy="250.5" fill="rgb(230,69,69)" fill-opacity="0.7" r="1.7999999999999998" stroke="black" stroke-opacity="0.7" stroke-width="0.2" /><line stroke="black" stroke-opacity="0.1" stroke-width="0.0" x1="453.0" x2="448.5" y1="255.0" y2="259.5" /><line stroke="black" stroke-opacity="0.1" stroke-width="0.45" x1="453.0" x2="453.0" y1="255.0" y2="259.5" /><line stroke="black" stroke-opacity="0.1" stroke-width="0.0" x1="453.0" x2="457.5" y1="255.0" y2="259.5" /><circle cx="453.0" cy="255.0" fill="rgb(230,69,69)" fill-opacity="0.7" r="1.7999999999999998" stroke="black" stroke-opacity="0.7" stroke-width="0.2" /><line stroke="black" stroke-opacity="0.1" stroke-width="0.0" x1="453.0" x2="448.5" y1="259.5" y2="264.0" /><line stroke="black" stroke-opacity="0.1" stroke-width="0.45" x1="453.0" x2="453.0" y1="259.5" y2="264.0" /><line stroke="black" stroke-opacity="0.1" stroke-width="0.0" x1="453.0" x2="457.5" y1="259.5" y2="264.0" /><circle cx="453.0" cy="259.5" fill="rgb(230,69,69)" fill-opacity="0.7" r="1.7999999999999998" stroke="black" stroke-opacity="0.7" stroke-width="0.2" /><line stroke="black" stroke-opacity="0.1" stroke-width="0.0" x1="453.0" x2="448.5" y1="264.0" y2="268.5" /><line stroke="black" stroke-opacity="0.1" stroke-width="0.45" x1="453.0" x2="453.0" y1="264.0" y2="268.5" /><line stroke="black" stroke-opacity="0.1" stroke-width="0.0" x1="453.0" x2="457.5" y1="264.0" y2="268.5" /><circle cx="453.0" cy="264.0" fill="rgb(230,69,69)" fill-opacity="0.7" r="1.7999999999999998" stroke="black" stroke-opacity="0.7" stroke-width="0.2" /><line stroke="black" stroke-opacity="0.1" stroke-width="0.0" x1="453.0" x2="448.5" y1="268.5" y2="273.0" /><line stroke="black" stroke-opacity="0.1" stroke-width="0.45" x1="453.0" x2="453.0" y1="268.5" y2="273.0" /><line stroke="black" stroke-opacity="0.1" stroke-width="0.0" x1="453.0" x2="457.5" y1="268.5" y2="273.0" /><circle cx="453.0" cy="268.5" fill="rgb(230,69,69)" fill-opacity="0.7" r="1.7999999999999998" stroke="black" stroke-opacity="0.7" stroke-width="0.2" /><line stroke="black" stroke-opacity="0.1" stroke-width="0.0" x1="453.0" x2="448.5" y1="273.0" y2="277.5" /><line stroke="black" stroke-opacity="0.1" stroke-width="0.45" x1="453.0" x2="453.0" y1="273.0" y2="277.5" /><line stroke="black" stroke-opacity="0.1" stroke-width="0.0" x1="453.0" x2="457.5" y1="273.0" y2="277.5" /><circle cx="453.0" cy="273.0" fill="rgb(230,69,69)" fill-opacity="0.7" r="1.7999999999999998" stroke="black" stroke-opacity="0.7" stroke-width="0.2" /><line stroke="black" stroke-opacity="0.1" stroke-width="0.0" x1="453.0" x2="448.5" y1="277.5" y2="282.0" /><line stroke="black" stroke-opacity="0.1" stroke-width="0.45" x1="453.0" x2="453.0" y1="277.5" y2="282.0" /><line stroke="black" stroke-opacity="0.1" stroke-width="0.0" x1="453.0" x2="457.5" y1="277.5" y2="282.0" /><circle cx="453.0" cy="277.5" fill="rgb(230,69,69)" fill-opacity="0.7" r="1.7999999999999998" stroke="black" stroke-opacity="0.7" stroke-width="0.2" /><line stroke="black" stroke-opacity="0.1" stroke-width="0.0" x1="453.0" x2="448.5" y1="282.0" y2="286.5" /><line stroke="black" stroke-opacity="0.1" stroke-width="0.45" x1="453.0" x2="453.0" y1="282.0" y2="286.5" /><line stroke="black" stroke-opacity="0.1" stroke-width="0.0" x1="453.0" x2="457.5" y1="282.0" y2="286.5" /><circle cx="453.0" cy="282.0" fill="rgb(230,69,69)" fill-opacity="0.7" r="1.7999999999999998" stroke="black" stroke-opacity="0.7" stroke-width="0.2" /><line stroke="black" stroke-opacity="0.1" stroke-width="0.0" x1="453.0" x2="448.5" y1="286.5" y2="291.0" /><line stroke="black" stroke-opacity="0.1" stroke-width="0.45" x1="453.0" x2="453.0" y1="286.5" y2="291.0" /><line stroke="black" stroke-opacity="0.1" stroke-width="0.0" x1="453.0" x2="457.5" y1="286.5" y2="291.0" /><circle cx="453.0" cy="286.5" fill="rgb(230,69,69)" fill-opacity="0.7" r="1.7999999999999998" stroke="black" stroke-opacity="0.7" stroke-width="0.2" /><line stroke="black" stroke-opacity="0.1" stroke-width="0.0" x1="453.0" x2="448.5" y1="291.0" y2="295.5" /><line stroke="black" stroke-opacity="0.1" stroke-width="0.45" x1="453.0" x2="453.0" y1="291.0" y2="295.5" /><line stroke="black" stroke-opacity="0.1" stroke-width="0.0" x1="453.0" x2="457.5" y1="291.0" y2="295.5" /><circle cx="453.0" cy="291.0" fill="rgb(230,69,69)" fill-opacity="0.7" r="1.7999999999999998" stroke="black" stroke-opacity="0.7" stroke-width="0.2" /><line stroke="black" stroke-opacity="0.1" stroke-width="0.0" x1="453.0" x2="448.5" y1="295.5" y2="300.0" /><line stroke="black" stroke-opacity="0.1" stroke-width="0.45" x1="453.0" x2="453.0" y1="295.5" y2="300.0" /><line stroke="black" stroke-opacity="0.1" stroke-width="0.0" x1="453.0" x2="457.5" y1="295.5" y2="300.0" /><circle cx="453.0" cy="295.5" fill="rgb(230,69,69)" fill-opacity="0.7" r="1.7999999999999998" stroke="black" stroke-opacity="0.7" stroke-width="0.2" /><line stroke="black" stroke-opacity="0.1" stroke-width="0.0" x1="453.0" x2="448.5" y1="300.0" y2="304.5" /><line stroke="black" stroke-opacity="0.1" stroke-width="0.45" x1="453.0" x2="453.0" y1="300.0" y2="304.5" /><line stroke="black" stroke-opacity="0.1" stroke-width="0.0" x1="453.0" x2="457.5" y1="300.0" y2="304.5" /><circle cx="453.0" cy="300.0" fill="rgb(230,69,69)" fill-opacity="0.7" r="1.7999999999999998" stroke="black" stroke-opacity="0.7" stroke-width="0.2" /><line stroke="black" stroke-opacity="0.1" stroke-width="0.0" x1="453.0" x2="448.5" y1="304.5" y2="309.0" /><line stroke="black" stroke-opacity="0.1" stroke-width="0.45" x1="453.0" x2="453.0" y1="304.5" y2="309.0" /><line stroke="black" stroke-opacity="0.1" stroke-width="0.0" x1="453.0" x2="457.5" y1="304.5" y2="309.0" /><circle cx="453.0" cy="304.5" fill="rgb(230,69,69)" fill-opacity="0.7" r="1.7999999999999998" stroke="black" stroke-opacity="0.7" stroke-width="0.2" /><line stroke="black" stroke-opacity="0.1" stroke-width="0.0" x1="453.0" x2="448.5" y1="309.0" y2="313.5" /><line stroke="black" stroke-opacity="0.1" stroke-width="0.45" x1="453.0" x2="453.0" y1="309.0" y2="313.5" /><line stroke="black" stroke-opacity="0.1" stroke-width="0.0" x1="453.0" x2="457.5" y1="309.0" y2="313.5" /><circle cx="453.0" cy="309.0" fill="rgb(230,69,69)" fill-opacity="0.7" r="1.7999999999999998" stroke="black" stroke-opacity="0.7" stroke-width="0.2" /><line stroke="black" stroke-opacity="0.1" stroke-width="0.0" x1="453.0" x2="448.5" y1="313.5" y2="318.0" /><line stroke="black" stroke-opacity="0.1" stroke-width="0.45" x1="453.0" x2="453.0" y1="313.5" y2="318.0" /><line stroke="black" stroke-opacity="0.1" stroke-width="0.0" x1="453.0" x2="457.5" y1="313.5" y2="318.0" /><circle cx="453.0" cy="313.5" fill="rgb(230,69,69)" fill-opacity="0.7" r="1.7999999999999998" stroke="black" stroke-opacity="0.7" stroke-width="0.2" /><line stroke="black" stroke-opacity="0.1" stroke-width="0.0" x1="453.0" x2="448.5" y1="318.0" y2="322.5" /><line stroke="black" stroke-opacity="0.1" stroke-width="0.45" x1="453.0" x2="453.0" y1="318.0" y2="322.5" /><line stroke="black" stroke-opacity="0.1" stroke-width="0.0" x1="453.0" x2="457.5" y1="318.0" y2="322.5" /><circle cx="453.0" cy="318.0" fill="rgb(230,69,69)" fill-opacity="0.7" r="1.7999999999999998" stroke="black" stroke-opacity="0.7" stroke-width="0.2" /><line stroke="black" stroke-opacity="0.1" stroke-width="0.0" x1="453.0" x2="448.5" y1="322.5" y2="327.0" /><line stroke="black" stroke-opacity="0.1" stroke-width="0.45" x1="453.0" x2="453.0" y1="322.5" y2="327.0" /><line stroke="black" stroke-opacity="0.1" stroke-width="0.0" x1="453.0" x2="457.5" y1="322.5" y2="327.0" /><circle cx="453.0" cy="322.5" fill="rgb(230,69,69)" fill-opacity="0.7" r="1.7999999999999998" stroke="black" stroke-opacity="0.7" stroke-width="0.2" /><line stroke="black" stroke-opacity="0.1" stroke-width="0.0" x1="453.0" x2="448.5" y1="327.0" y2="331.5" /><line stroke="black" stroke-opacity="0.1" stroke-width="0.45" x1="453.0" x2="453.0" y1="327.0" y2="331.5" /><line stroke="black" stroke-opacity="0.1" stroke-width="0.0" x1="453.0" x2="457.5" y1="327.0" y2="331.5" /><circle cx="453.0" cy="327.0" fill="rgb(230,69,69)" fill-opacity="0.7" r="1.7999999999999998" stroke="black" stroke-opacity="0.7" stroke-width="0.2" /><line stroke="black" stroke-opacity="0.1" stroke-width="0.0" x1="453.0" x2="448.5" y1="331.5" y2="336.0" /><line stroke="black" stroke-opacity="0.1" stroke-width="0.45" x1="453.0" x2="453.0" y1="331.5" y2="336.0" /><line stroke="black" stroke-opacity="0.1" stroke-width="0.0" x1="453.0" x2="457.5" y1="331.5" y2="336.0" /><circle cx="453.0" cy="331.5" fill="rgb(230,69,69)" fill-opacity="0.7" r="1.7999999999999998" stroke="black" stroke-opacity="0.7" stroke-width="0.2" /><line stroke="black" stroke-opacity="0.1" stroke-width="0.0" x1="453.0" x2="448.5" y1="336.0" y2="340.5" /><line stroke="black" stroke-opacity="0.1" stroke-width="0.45" x1="453.0" x2="453.0" y1="336.0" y2="340.5" /><line stroke="black" stroke-opacity="0.1" stroke-width="0.0" x1="453.0" x2="457.5" y1="336.0" y2="340.5" /><circle cx="453.0" cy="336.0" fill="rgb(230,69,69)" fill-opacity="0.7" r="1.7999999999999998" stroke="black" stroke-opacity="0.7" stroke-width="0.2" /><line stroke="black" stroke-opacity="0.1" stroke-width="0.0" x1="453.0" x2="448.5" y1="340.5" y2="345.0" /><line stroke="black" stroke-opacity="0.1" stroke-width="0.45" x1="453.0" x2="453.0" y1="340.5" y2="345.0" /><line stroke="black" stroke-opacity="0.1" stroke-width="0.0" x1="453.0" x2="457.5" y1="340.5" y2="345.0" /><circle cx="453.0" cy="340.5" fill="rgb(230,69,69)" fill-opacity="0.7" r="1.7999999999999998" stroke="black" stroke-opacity="0.7" stroke-width="0.2" /><line stroke="black" stroke-opacity="0.1" stroke-width="0.0" x1="453.0" x2="448.5" y1="345.0" y2="349.5" /><line stroke="black" stroke-opacity="0.1" stroke-width="0.45" x1="453.0" x2="453.0" y1="345.0" y2="349.5" /><line stroke="black" stroke-opacity="0.1" stroke-width="0.0" x1="453.0" x2="457.5" y1="345.0" y2="349.5" /><circle cx="453.0" cy="345.0" fill="rgb(230,69,69)" fill-opacity="0.7" r="1.7999999999999998" stroke="black" stroke-opacity="0.7" stroke-width="0.2" /><line stroke="black" stroke-opacity="0.1" stroke-width="0.0" x1="453.0" x2="448.5" y1="349.5" y2="354.0" /><line stroke="black" stroke-opacity="0.1" stroke-width="0.45" x1="453.0" x2="453.0" y1="349.5" y2="354.0" /><line stroke="black" stroke-opacity="0.1" stroke-width="0.0" x1="453.0" x2="457.5" y1="349.5" y2="354.0" /><circle cx="453.0" cy="349.5" fill="rgb(230,69,69)" fill-opacity="0.7" r="1.7999999999999998" stroke="black" stroke-opacity="0.7" stroke-width="0.2" /><line stroke="black" stroke-opacity="0.1" stroke-width="0.0" x1="453.0" x2="448.5" y1="354.0" y2="358.5" /><line stroke="black" stroke-opacity="0.1" stroke-width="0.45" x1="453.0" x2="453.0" y1="354.0" y2="358.5" /><line stroke="black" stroke-opacity="0.1" stroke-width="0.0" x1="453.0" x2="457.5" y1="354.0" y2="358.5" /><circle cx="453.0" cy="354.0" fill="rgb(230,69,69)" fill-opacity="0.7" r="1.7999999999999998" stroke="black" stroke-opacity="0.7" stroke-width="0.2" /><line stroke="black" stroke-opacity="0.1" stroke-width="0.0" x1="453.0" x2="448.5" y1="358.5" y2="363.0" /><line stroke="black" stroke-opacity="0.1" stroke-width="0.45" x1="453.0" x2="453.0" y1="358.5" y2="363.0" /><line stroke="black" stroke-opacity="0.1" stroke-width="0.0" x1="453.0" x2="457.5" y1="358.5" y2="363.0" /><circle cx="453.0" cy="358.5" fill="rgb(230,69,69)" fill-opacity="0.7" r="1.7999999999999998" stroke="black" stroke-opacity="0.7" stroke-width="0.2" /><line stroke="black" stroke-opacity="0.1" stroke-width="0.0" x1="453.0" x2="448.5" y1="363.0" y2="367.5" /><line stroke="black" stroke-opacity="0.1" stroke-width="0.45" x1="453.0" x2="453.0" y1="363.0" y2="367.5" /><line stroke="black" stroke-opacity="0.1" stroke-width="0.0" x1="453.0" x2="457.5" y1="363.0" y2="367.5" /><circle cx="453.0" cy="363.0" fill="rgb(230,69,69)" fill-opacity="0.7" r="1.7999999999999998" stroke="black" stroke-opacity="0.7" stroke-width="0.2" /><line stroke="black" stroke-opacity="0.1" stroke-width="0.0" x1="453.0" x2="448.5" y1="367.5" y2="372.0" /><line stroke="black" stroke-opacity="0.1" stroke-width="0.45" x1="453.0" x2="453.0" y1="367.5" y2="372.0" /><line stroke="black" stroke-opacity="0.1" stroke-width="0.0" x1="453.0" x2="457.5" y1="367.5" y2="372.0" /><circle cx="453.0" cy="367.5" fill="rgb(230,69,69)" fill-opacity="0.7" r="1.7999999999999998" stroke="black" stroke-opacity="0.7" stroke-width="0.2" /><line stroke="black" stroke-opacity="0.1" stroke-width="0.0" x1="453.0" x2="448.5" y1="372.0" y2="376.5" /><line stroke="black" stroke-opacity="0.1" stroke-width="0.45" x1="453.0" x2="453.0" y1="372.0" y2="376.5" /><line stroke="black" stroke-opacity="0.1" stroke-width="0.0" x1="453.0" x2="457.5" y1="372.0" y2="376.5" /><circle cx="453.0" cy="372.0" fill="rgb(230,69,69)" fill-opacity="0.7" r="1.7999999999999998" stroke="black" stroke-opacity="0.7" stroke-width="0.2" /><line stroke="black" stroke-opacity="0.1" stroke-width="0.0" x1="453.0" x2="448.5" y1="376.5" y2="381.0" /><line stroke="black" stroke-opacity="0.1" stroke-width="0.45" x1="453.0" x2="453.0" y1="376.5" y2="381.0" /><line stroke="black" stroke-opacity="0.1" stroke-width="0.0" x1="453.0" x2="457.5" y1="376.5" y2="381.0" /><circle cx="453.0" cy="376.5" fill="rgb(230,69,69)" fill-opacity="0.7" r="1.7999999999999998" stroke="black" stroke-opacity="0.7" stroke-width="0.2" /><line stroke="black" stroke-opacity="0.1" stroke-width="0.0" x1="453.0" x2="448.5" y1="381.0" y2="385.5" /><line stroke="black" stroke-opacity="0.1" stroke-width="0.45" x1="453.0" x2="453.0" y1="381.0" y2="385.5" /><line stroke="black" stroke-opacity="0.1" stroke-width="0.0" x1="453.0" x2="457.5" y1="381.0" y2="385.5" /><circle cx="453.0" cy="381.0" fill="rgb(230,69,69)" fill-opacity="0.7" r="1.7999999999999998" stroke="black" stroke-opacity="0.7" stroke-width="0.2" /><line stroke="black" stroke-opacity="0.1" stroke-width="0.0" x1="453.0" x2="448.5" y1="385.5" y2="390.0" /><line stroke="black" stroke-opacity="0.1" stroke-width="0.45" x1="453.0" x2="453.0" y1="385.5" y2="390.0" /><line stroke="black" stroke-opacity="0.1" stroke-width="0.0" x1="453.0" x2="457.5" y1="385.5" y2="390.0" /><circle cx="453.0" cy="385.5" fill="rgb(230,69,69)" fill-opacity="0.7" r="1.7999999999999998" stroke="black" stroke-opacity="0.7" stroke-width="0.2" /><line stroke="black" stroke-opacity="0.1" stroke-width="0.0" x1="453.0" x2="448.5" y1="390.0" y2="394.5" /><line stroke="black" stroke-opacity="0.1" stroke-width="0.45" x1="453.0" x2="453.0" y1="390.0" y2="394.5" /><line stroke="black" stroke-opacity="0.1" stroke-width="0.0" x1="453.0" x2="457.5" y1="390.0" y2="394.5" /><circle cx="453.0" cy="390.0" fill="rgb(230,69,69)" fill-opacity="0.7" r="1.7999999999999998" stroke="black" stroke-opacity="0.7" stroke-width="0.2" /><line stroke="black" stroke-opacity="0.1" stroke-width="0.0" x1="453.0" x2="448.5" y1="394.5" y2="399.0" /><line stroke="black" stroke-opacity="0.1" stroke-width="0.45" x1="453.0" x2="453.0" y1="394.5" y2="399.0" /><line stroke="black" stroke-opacity="0.1" stroke-width="0.0" x1="453.0" x2="457.5" y1="394.5" y2="399.0" /><circle cx="453.0" cy="394.5" fill="rgb(230,69,69)" fill-opacity="0.7" r="1.7999999999999998" stroke="black" stroke-opacity="0.7" stroke-width="0.2" /><line stroke="black" stroke-opacity="0.1" stroke-width="0.0" x1="453.0" x2="448.5" y1="399.0" y2="403.5" /><line stroke="black" stroke-opacity="0.1" stroke-width="0.45" x1="453.0" x2="453.0" y1="399.0" y2="403.5" /><line stroke="black" stroke-opacity="0.1" stroke-width="0.0" x1="453.0" x2="457.5" y1="399.0" y2="403.5" /><circle cx="453.0" cy="399.0" fill="rgb(230,69,69)" fill-opacity="0.7" r="1.7999999999999998" stroke="black" stroke-opacity="0.7" stroke-width="0.2" /><line stroke="black" stroke-opacity="0.1" stroke-width="0.0" x1="453.0" x2="448.5" y1="403.5" y2="408.0" /><line stroke="black" stroke-opacity="0.1" stroke-width="0.45" x1="453.0" x2="453.0" y1="403.5" y2="408.0" /><line stroke="black" stroke-opacity="0.1" stroke-width="0.0" x1="453.0" x2="457.5" y1="403.5" y2="408.0" /><circle cx="453.0" cy="403.5" fill="rgb(230,69,69)" fill-opacity="0.7" r="1.7999999999999998" stroke="black" stroke-opacity="0.7" stroke-width="0.2" /><line stroke="black" stroke-opacity="0.1" stroke-width="0.0" x1="453.0" x2="448.5" y1="408.0" y2="412.5" /><line stroke="black" stroke-opacity="0.1" stroke-width="0.45" x1="453.0" x2="453.0" y1="408.0" y2="412.5" /><line stroke="black" stroke-opacity="0.1" stroke-width="0.0" x1="453.0" x2="457.5" y1="408.0" y2="412.5" /><circle cx="453.0" cy="408.0" fill="rgb(230,69,69)" fill-opacity="0.7" r="1.7999999999999998" stroke="black" stroke-opacity="0.7" stroke-width="0.2" /><line stroke="black" stroke-opacity="0.1" stroke-width="0.0" x1="453.0" x2="448.5" y1="412.5" y2="417.0" /><line stroke="black" stroke-opacity="0.1" stroke-width="0.45" x1="453.0" x2="453.0" y1="412.5" y2="417.0" /><line stroke="black" stroke-opacity="0.1" stroke-width="0.0" x1="453.0" x2="457.5" y1="412.5" y2="417.0" /><circle cx="453.0" cy="412.5" fill="rgb(230,69,69)" fill-opacity="0.7" r="1.7999999999999998" stroke="black" stroke-opacity="0.7" stroke-width="0.2" /><line stroke="black" stroke-opacity="0.1" stroke-width="0.0" x1="453.0" x2="448.5" y1="417.0" y2="421.5" /><line stroke="black" stroke-opacity="0.1" stroke-width="0.45" x1="453.0" x2="453.0" y1="417.0" y2="421.5" /><line stroke="black" stroke-opacity="0.1" stroke-width="0.0" x1="453.0" x2="457.5" y1="417.0" y2="421.5" /><circle cx="453.0" cy="417.0" fill="rgb(230,69,69)" fill-opacity="0.7" r="1.7999999999999998" stroke="black" stroke-opacity="0.7" stroke-width="0.2" /><line stroke="black" stroke-opacity="0.1" stroke-width="0.0" x1="453.0" x2="448.5" y1="421.5" y2="426.0" /><line stroke="black" stroke-opacity="0.1" stroke-width="0.45" x1="453.0" x2="453.0" y1="421.5" y2="426.0" /><line stroke="black" stroke-opacity="0.1" stroke-width="0.0" x1="453.0" x2="457.5" y1="421.5" y2="426.0" /><circle cx="453.0" cy="421.5" fill="rgb(230,69,69)" fill-opacity="0.7" r="1.7999999999999998" stroke="black" stroke-opacity="0.7" stroke-width="0.2" /><line stroke="black" stroke-opacity="0.1" stroke-width="0.0" x1="453.0" x2="448.5" y1="426.0" y2="430.5" /><line stroke="black" stroke-opacity="0.1" stroke-width="0.45" x1="453.0" x2="453.0" y1="426.0" y2="430.5" /><line stroke="black" stroke-opacity="0.1" stroke-width="0.0" x1="453.0" x2="457.5" y1="426.0" y2="430.5" /><circle cx="453.0" cy="426.0" fill="rgb(230,69,69)" fill-opacity="0.7" r="1.7999999999999998" stroke="black" stroke-opacity="0.7" stroke-width="0.2" /><line stroke="black" stroke-opacity="0.1" stroke-width="0.0" x1="453.0" x2="448.5" y1="430.5" y2="435.0" /><line stroke="black" stroke-opacity="0.1" stroke-width="0.45" x1="453.0" x2="453.0" y1="430.5" y2="435.0" /><line stroke="black" stroke-opacity="0.1" stroke-width="0.0" x1="453.0" x2="457.5" y1="430.5" y2="435.0" /><circle cx="453.0" cy="430.5" fill="rgb(230,69,69)" fill-opacity="0.7" r="1.7999999999999998" stroke="black" stroke-opacity="0.7" stroke-width="0.2" /><line stroke="black" stroke-opacity="0.1" stroke-width="0.0" x1="453.0" x2="448.5" y1="435.0" y2="439.5" /><line stroke="black" stroke-opacity="0.1" stroke-width="0.45" x1="453.0" x2="453.0" y1="435.0" y2="439.5" /><line stroke="black" stroke-opacity="0.1" stroke-width="0.0" x1="453.0" x2="457.5" y1="435.0" y2="439.5" /><circle cx="453.0" cy="435.0" fill="rgb(230,69,69)" fill-opacity="0.7" r="1.7999999999999998" stroke="black" stroke-opacity="0.7" stroke-width="0.2" /><line stroke="black" stroke-opacity="0.1" stroke-width="0.0" x1="453.0" x2="448.5" y1="439.5" y2="444.0" /><line stroke="black" stroke-opacity="0.1" stroke-width="0.45" x1="453.0" x2="453.0" y1="439.5" y2="444.0" /><line stroke="black" stroke-opacity="0.1" stroke-width="0.0" x1="453.0" x2="457.5" y1="439.5" y2="444.0" /><circle cx="453.0" cy="439.5" fill="rgb(230,69,69)" fill-opacity="0.7" r="1.7999999999999998" stroke="black" stroke-opacity="0.7" stroke-width="0.2" /><line stroke="black" stroke-opacity="0.1" stroke-width="0.0" x1="453.0" x2="448.5" y1="444.0" y2="448.5" /><line stroke="black" stroke-opacity="0.1" stroke-width="0.45" x1="453.0" x2="453.0" y1="444.0" y2="448.5" /><line stroke="black" stroke-opacity="0.1" stroke-width="0.0" x1="453.0" x2="457.5" y1="444.0" y2="448.5" /><circle cx="453.0" cy="444.0" fill="rgb(230,69,69)" fill-opacity="0.7" r="1.7999999999999998" stroke="black" stroke-opacity="0.7" stroke-width="0.2" /><line stroke="black" stroke-opacity="0.1" stroke-width="0.0" x1="453.0" x2="448.5" y1="448.5" y2="453.0" /><line stroke="black" stroke-opacity="0.1" stroke-width="0.45" x1="453.0" x2="453.0" y1="448.5" y2="453.0" /><line stroke="black" stroke-opacity="0.1" stroke-width="0.0" x1="453.0" x2="457.5" y1="448.5" y2="453.0" /><circle cx="453.0" cy="448.5" fill="rgb(230,69,69)" fill-opacity="0.7" r="1.7999999999999998" stroke="black" stroke-opacity="0.7" stroke-width="0.2" /><circle cx="453.0" cy="453.0" fill="rgb(230,69,69)" fill-opacity="0.7" r="1.7999999999999998" stroke="black" stroke-opacity="0.7" stroke-width="0.2" /></svg>