<?xml version="1.0" encoding="utf-8" ?>
<svg baseProfile="full" height="500" version="1.1" width="970" xmlns="http://www.w3.org/2000/svg" xmlns:ev="http://www.w3.org/2001/xml-events" xmlns:xlink="http://www.w3.org/1999/xlink"><defs /><line stroke="black" stroke-opacity="0.1" stroke-width="0.0" x1="456.0" x2="447.0" y1="6.0" y2="15.0" /><line stroke="black" stroke-opacity="0.1" stroke-width="0.9" x1="456.0" x2="456.0" y1="6.0" y2="15.0" /><line stroke="black" stroke-opacity="0.1" stroke-width="0.0" x1="456.0" x2="465.0" y1="6.0" y2="15.0" /><circle cx="456.0" cy="6.0" fill="rgb(230,69,69)" fill-opacity="0.7" r="3.5999999999999996" stroke="black" stroke-opacity="0.7" stroke-width="0.4" /><line stroke="black" stroke-opacity="0.1" stroke-width="0.0" x1="456.0" x2="447.0" y1="15.0" y2="24.0" /><line stroke="black" stroke-opacity="0.1" stroke-width="0.9" x1="456.0" x2="456.0" y1="15.0" y2="24.0" /><line stroke="black" stroke-opacity="0.1" stroke-width="0.0" x1="456.0" x2="465.0" y1="15.0" y2="24.0" /><circle cx="456.0" cy="15.0" fill="rgb(230,69,69)" fill-opacity="0.7" r="3.5999999999999996" stroke="black" stroke-opacity="0.7" stroke-width="0.4" /><line stroke="black" stroke-opacity="0.1" stroke-width="0.0" x1="456.0" x2="447.0" y1="24.0" y2="33.0" /><line stroke="black" stroke-opacity="0.1" stroke-width="0.9" x1="456.0" x2="456.0" y1="24.0" y2="33.0" /><line stroke="black" stroke-opacity="0.1" stroke-width="0.0" x1="456.0" x2="465.0" y1="24.0" y2="33.0" /><circle cx="456.0" cy="24.0" fill="rgb(230,69,69)" fill-opacity="0.7" r="3.5999999999999996" stroke="black" stroke-opacity="0.7" stroke-width="0.4" /><line stroke="black" stroke-opacity="0.1" stroke-width="0.0" x1="456.0" x2="447.0" y1="33.0" y2="42.0" /><line stroke="black" stroke-opacity="0.1" stroke-width="0.9" x1="456.0" x2="456.0" y1="33.0" y2="42.0" /><line stroke="black" stroke-opacity="0.1" stroke-width="0.0" x1="456.0" x2="465.0" y1="33.0" y2="42.0" /><circle cx="456.0" cy="33.0" fill="rgb(230,69,69)" fill-opacity="0.7" r="3.5999999999999996" stroke="black" stroke-opacity="0.7" stroke-width="0.4" /><line stroke="black" stroke-opacity="0.1" stroke-width="0.0" x1="456.0" x2="447.0" y1="42.0" y2="51.0" /><line stroke="black" stroke-opacity="0.1" stroke-width="0.9" x1="456.0" x2="456.0" y1="42.0" y2="51.0" /><line stroke="black" stroke-opacity="0.1" stroke-width="0.0" x1="456.0" x2="465.0" y1="42.0" y2="51.0" /><circle cx="456.0" cy="42.0" fill="rgb(230,69,69)" fill-opacity="0.7" r="3.5999999999999996" stroke="black" stroke-opacity="0.7" stroke-width="0.4" /><line stroke="black" stroke-opacity="0.1" stroke-width="0.0" x1="456.0" x2="447.0" y1="51.0" y2="60.0" /><line stroke="black" stroke-opacity="0.1" stroke-width="0.9" x1="456.0" x2="456.0" y1="51.0" y2="60.0" /><line stroke="black" stroke-opacity="0.1" stroke-width="0.0" x1="456.0" x2="465.0" y1="51.0" y2="60.0" /><circle cx="456.0" cy="51.0" fill="rgb(230,69,69)" fill-opacity="0.7" r="3.5999999999999996" stroke="black" stroke-opacity="0.7" stroke-width="0.4" /><line stroke="black" stroke-opacity="0.1" stroke-width="0.0" x1="456.0" x2="447.0" y1="60.0" y2="69.0" /><line stroke="black" stroke-opacity="0.1" stroke-width="0.9" x1="456.0" x2="456.0" y1="60.0" y2="69.0" /><line stroke="black" stroke-opacity="0.1" stroke-width="0.0" x1="456.0" x2="465.0" y1="60.0" y2="69.0" /><circle cx="456.0" cy="60.0" fill="rgb(230,69,69)" fill-opacity="0.7" r="3.5999999999999996" stroke="black" stroke-opacity="0.7" stroke-width="0.4" /><line stroke="black" stroke-opacity="0.1" stroke-width="0.0" x1="456.0" x2="447.0" y1="69.0" y2="78.0" /><line stroke="black" stroke-opacity="0.1" stroke-width="0.9" x1="456.0" x2="456.0" y1="69.0" y2="78.0" /><line stroke="black" stroke-opacity="0.1" stroke-width="0.0" x1="456.0" x2="465.0" y1="69.0" y2="78.0" /><circle cx="456.0" cy="69.0" fill="rgb(230,69,69)" fill-opacity="0.7" r="3.5999999999999996" stroke="black" stroke-opacity="0.7" stroke-width="0.4" /><line stroke="black" stroke-opacity="0.1" stroke-width="0.0" x1="456.0" x2="447.0" y1="78.0" y2="87.0" /><line stroke="black" stroke-opacity="0.1" stroke-width="0.9" x1="456.0" x2="456.0" y1="78.0" y2="87.0" /><line stroke="black" stroke-opacity="0.1" stroke-width="0.0" x1="456.0" x2="465.0" y1="78.0" y2="87.0" /><circle cx="456.0" cy="78.0" fill="rgb(230,69,69)" fill-opacity="0.7" r="3.5999999999999996" stroke="black" stroke-opacity="0.7" stroke-width="0.4" /><line stroke="black" stroke-opacity="0.1" stroke-width="0.0" x1="456.0" x2="447.0" y1="87.0" y2="96.0" /><line stroke="black" stroke-opacity="0.1" stroke-width="0.9" x1="456.0" x2="456.0" y1="87.0" y2="96.0" /><line stroke="black" stroke-opacity="0.1" stroke-width="0.0" x1="456.0" x2="465.0" y1="87.0" y2="96.0" /><circle cx="456.0" cy="87.0" fill="rgb(230,69,69)" fill-opacity="0.7" r="3.5999999999999996" stroke="black" stroke-opacity="0.7" stroke-width="0.4" /><line stroke="black" stroke-opacity="0.1" stroke-width="0.0" x1="456.0" x2="447.0" y1="96.0" y2="105.0" /><line stroke="black" stroke-opacity="0.1" stroke-width="0.9" x1="456.0" x2="456.0" y1="96.0" y2="105.0" /><line stroke="black" stroke-opacity="0.1" stroke-width="0.0" x1="456.0" x2="465.0" y1="96.0" y2="105.0" /><circle cx="456.0" cy="96.0" fill="rgb(230,69,69)" fill-opacity="0.7" r="3.5999999999999996" stroke="black" stroke-opacity="0.7" stroke-width="0.4" /><line stroke="black" stroke-opacity="0.1" stroke-width="0.0" x1="456.0" x2="447.0" y1="105.0" y2="114.0" /><line stroke="black" stroke-opacity="0.1" stroke-width="0.9" x1="456.0" x2="456.0" y1="105.0" y2="114.0" /><line stroke="black" stroke-opacity="0.1" stroke-width="0.0" x1="456.0" x2="465.0" y1="105.0" y2="114.0" /><circle cx="456.0" cy="105.0" fill="rgb(230,69,69)" fill-opacity="0.7" r="3.5999999999999996" stroke="black" stroke-opacity="0.7" stroke-width="0.4" /><line stroke="black" stroke-opacity="0.1" stroke-width="0.0" x1="456.0" x2="447.0" y1="114.0" y2="123.0" /><line stroke="black" stroke-opacity="0.1" stroke-width="0.9" x1="456.0" x2="456.0" y1="114.0" y2="123.0" /><line stroke="black" stroke-opacity="0.1" stroke-width="0.0" x1="456.0" x2="465.0" y1="114.0" y2="123.0" /><circle cx="456.0" cy="114.0" fill="rgb(230,69,69)" fill-opacity="0.7" r="3.5999999999999996" stroke="black" stroke-opacity="0.7" stroke-width="0.4" /><line stroke="black" stroke-opacity="0.1" stroke-width="0.0" x1="456.0" x2="447.0" y1="123.0" y2="132.0" /><line stroke="black" stroke-opacity="0.1" stroke-width="0.9" x1="456.0" x2="456.0" y1="123.0" y2="132.0" /><line stroke="black" stroke-opacity="0.1" stroke-width="0.0" x1="456.0" x2="465.0" y1="123.0" y2="132.0" /><circle cx="456.0" cy="123.0" fill="rgb(230,69,69)" fill-opacity="0.7" r="3.5999999999999996" stroke="black" stroke-opacity="0.7" stroke-width="0.4" /><line stroke="black" stroke-opacity="0.1" stroke-width="0.0" x1="456.0" x2="447.0" y1="132.0" y2="141.0" /><line stroke="black" stroke-opacity="0.1" stroke-width="0.9" x1="456.0" x2="456.0" y1="132.0" y2="141.0" /><line stroke="black" stroke-opacity="0.1" stroke-width="0.0" x1="456.0" x2="465.0" y1="132.0" y2="141.0" /><circle cx="456.0" cy="132.0" fill="rgb(230,69,69)" fill-opacity="0.7" r="3.5999999999999996" stroke="black" stroke-opacity="0.7" stroke-width="0.4" /><line stroke="black" stroke-opacity="0.1" stroke-width="0.0" x1="456.0" x2="447.0" y1="141.0" y2="150.0" /><line stroke="black" stroke-opacity="0.1" stroke-width="0.9" x1="456.0" x2="456.0" y1="141.0" y2="150.0" /><line stroke="black" stroke-opacity="0.1" stroke-width="0.0" x1="456.0" x2="465.0" y1="141.0" y2="150.0" /><circle cx="456.0" cy="141.0" fill="rgb(230,69,69)" fill-opacity="0.7" r="3.5999999999999996" stroke="black" stroke-opacity="0.7" stroke-width="0.4" /><line stroke="black" stroke-opacity="0.1" stroke-width="0.0" x1="456.0" x2="447.0" y1="150.0" y2="159.0" /><line stroke="black" stroke-opacity="0.1" stroke-width="0.9" x1="456.0" x2="456.0" y1="150.0" y2="159.0" /><line stroke="black" stroke-opacity="0.1" stroke-width="0.0" x1="456.0" x2="465.0" y1="150.0" y2="159.0" /><circle cx="456.0" cy="150.0" fill="rgb(230,69,69)" fill-opacity="0.7" r="3.5999999999999996" stroke="black" stroke-opacity="0.7" stroke-width="0.4" /><line stroke="black" stroke-opacity="0.1" stroke-width="0.0" x1="456.0" x2="447.0" y1="159.0" y2="168.0" /><line stroke="black" stroke-opacity="0.1" stroke-width="0.9" x1="456.0" x2="456.0" y1="159.0" y2="168.0" /><line stroke="black" stroke-opacity="0.1" stroke-width="0.0" x1="456.0" x2="465.0" y1="159.0" y2="168.0" /><circle cx="456.0" cy="159.0" fill="rgb(230,69,69)" fill-opacity="0.7" r="3.5999999999999996" stroke="black" stroke-opacity="0.7" stroke-width="0.4" /><line stroke="black" stroke-opacity="0.1" stroke-width="0.0" x1="456.0" x2="447.0" y1="168.0" y2="177.0" /><line stroke="black" stroke-opacity="0.1" stroke-width="0.9" x1="456.0" x2="456.0" y1="168.0" y2="177.0" /><line stroke="black" stroke-opacity="0.1" stroke-width="0.0" x1="456.0" x2="465.0" y1="168.0" y2="177.0" /><circle cx="456.0" cy="168.0" fill="rgb(230,69,69)" fill-opacity="0.7" r="3.5999999999999996" stroke="black" stroke-opacity="0.7" stroke-width="0.4" /><line stroke="black" stroke-opacity="0.1" stroke-width="0.0" x1="456.0" x2="447.0" y1="177.0" y2="186.0" /><line stroke="black" stroke-opacity="0.1" stroke-width="0.9" x1="456.0" x2="456.0" y1="177.0" y2="186.0" /><line stroke="black" stroke-opacity="0.1" stroke-width="0.0" x1="456.0" x2="465.0" y1="177.0" y2="186.0" /><circle cx="456.0" cy="177.0" fill="rgb(230,69,69)" fill-opacity="0.7" r="3.5999999999999996" stroke="black" stroke-opacity="0.7" stroke-width="0.4" /><line stroke="black" stroke-opacity="0.1" stroke-width="0.0" x1="456.0" x2="447.0" y1="186.0" y2="195.0" /><line stroke="black" stroke-opacity="0.1" stroke-width="0.9" x1="456.0" x2="456.0" y1="186.0" y2="195.0" /><line stroke="black" stroke-opacity="0.1" stroke-width="0.0" x1="456.0" x2="465.0" y1="186.0" y2="195.0" /><circle cx="456.0" cy="186.0" fill="rgb(230,69,69)" fill-opacity="0.7" r="3.5999999999999996" stroke="black" stroke-opacity="0.7" stroke-width="0.4" /><line stroke="black" stroke-opacity="0.1" stroke-width="0.0" x1="456.0" x2="447.0" y1="195.0" y2="204.0" /><line stroke="black" stroke-opacity="0.1" stroke-width="0.9" x1="456.0" x2="456.0" y1="195.0" y2="204.0" /><line stroke="black" stroke-opacity="0.1" stroke-width="0.0" x1="456.0" x2="465.0" y1="195.0" y2="204.0" /><circle cx="456.0" cy="195.0" fill="rgb(230,69,69)" fill-opacity="0.7" r="3.5999999999999996" stroke="black" stroke-opacity="0.7" stroke-width="0.4" /><line stroke="black" stroke-opacity="0.1" stroke-width="0.0" x1="456.0" x2="447.0" y1="204.0" y2="213.0" /><line stroke="black" stroke-opacity="0.1" stroke-width="0.9" x1="456.0" x2="456.0" y1="204.0" y2="213.0" /><line stroke="black" stroke-opacity="0.1" stroke-width="0.0" x1="456.0" x2="465.0" y1="204.0" y2="213.0" /><circle cx="456.0" cy="204.0" fill="rgb(230,69,69)" fill-opacity="0.7" r="3.5999999999999996" stroke="black" stroke-opacity="0.7" stroke-width="0.4" /><line stroke="black" stroke-opacity="0.1" stroke-width="0.0" x1="456.0" x2="447.0" y1="213.0" y2="222.0" /><line stroke="black" stroke-opacity="0.1" stroke-width="0.9" x1="456.0" x2="456.0" y1="213.0" y2="222.0" /><line stroke="black" stroke-opacity="0.1" stroke-width="0.0" x1="456.0" x2="465.0" y1="213.0" y2="222.0" /><circle cx="456.0" cy="213.0" fill="rgb(230,69,69)" fill-opacity="0.7" r="3.5999999999999996" stroke="black" stroke-opacity="0.7" stroke-width="0.4" /><line stroke="black" stroke-opacity="0.1" stroke-width="0.0" x1="456.0" x2="447.0" y1="222.0" y2="231.0" /><line stroke="black" stroke-opacity="0.1" stroke-width="0.9" x1="456.0" x2="456.0" y1="222.0" y2="231.0" /><line stroke="black" stroke-opacity="0.1" stroke-width="0.0" x1="456.0" x2="465.0" y1="222.0" y2="231.0" /><circle cx="456.0" cy="222.0" fill="rgb(230,69,69)" fill-opacity="0.7" r="3.5999999999999996" stroke="black" stroke-opacity="0.7" stroke-width="0.4" /><line stroke="black" stroke-opacity="0.1" stroke-width="0.0" x1="456.0" x2="447.0" y1="231.0" y2="240.0" /><line stroke="black" stroke-opacity="0.1" stroke-width="0.9" x1="456.0" x2="456.0" y1="231.0" y2="240.0" /><line stroke="black" stroke-opacity="0.1" stroke-width="0.0" x1="456.0" x2="465.0" y1="231.0" y2="240.0" /><circle cx="456.0" cy="231.0" fill="rgb(230,69,69)" fill-opacity="0.7" r="3.5999999999999996" stroke="black" stroke-opacity="0.7" stroke-width="0.4" /><line stroke="black" stroke-opacity="0.1" stroke-width="0.0" x1="456.0" x2="447.0" y1="240.0" y2="249.0" /><line stroke="black" stroke-opacity="0.1" stroke-width="0.9" x1="456.0" x2="456.0" y1="240.0" y2="249.0" /><line stroke="black" stroke-opacity="0.1" stroke-width="0.0" x1="456.0" x2="465.0" y1="240.0" y2="249.0" /><circle cx="456.0" cy="240.0" fill="rgb(230,69,69)" fill-opacity="0.7" r="3.5999999999999996" stroke="black" stroke-opacity="0.7" stroke-width="0.4" /><line stroke="black" stroke-opacity="0.1" stroke-width="0.0" x1="456.0" x2="447.0" y1="249.0" y2="258.0" /><line stroke="black" stroke-opacity="0.1" stroke-width="0.9" x1="456.0" x2="456.0" y1="249.0" y2="258.0" /><line stroke="black" stroke-opacity="0.1" stroke-width="0.0" x1="456.0" x2="465.0" y1="249.0" y2="258.0" /><circle cx="456.0" cy="249.0" fill="rgb(230,69,69)" fill-opacity="0.7" r="3.5999999999999996" stroke="black" stroke-opacity="0.7" stroke-width="0.4" /><line stroke="black" stroke-opacity="0.1" stroke-width="0.0" x1="456.0" x2="447.0" y1="258.0" y2="267.0" /><line stroke="black" stroke-opacity="0.1" stroke-width="0.9" x1="456.0" x2="456.0" y1="258.0" y2="267.0" /><line stroke="black" stroke-opacity="0.1" stroke-width="0.0" x1="456.0" x2="465.0" y1="258.0" y2="267.0" /><circle cx="456.0" cy="258.0" fill="rgb(230,69,69)" fill-opacity="0.7" r="3.5999999999999996" stroke="black" stroke-opacity="0.7" stroke-width="0.4" /><line stroke="black" stroke-opacity="0.1" stroke-width="0.0" x1="456.0" x2="447.0" y1="267.0" y2="276.0" /><line stroke="black" stroke-opacity="0.1" stroke-width="0.9" x1="456.0" x2="456.0" y1="267.0" y2="276.0" /><line stroke="black" stroke-opacity="0.1" stroke-width="0.0" x1="456.0" x2="465.0" y1="267.0" y2="276.0" /><circle cx="456.0" cy="267.0" fill="rgb(230,69,69)" fill-opacity="0.7" r="3.5999999999999996" stroke="black" stroke-opacity="0.7" stroke-width="0.4" /><line stroke="black" stroke-opacity="0.1" stroke-width="0.0" x1="456.0" x2="447.0" y1="276.0" y2="285.0" /><line stroke="black" stroke-opacity="0.1" stroke-width="0.9" x1="456.0" x2="456.0" y1="276.0" y2="285.0" /><line stroke="black" stroke-opacity="0.1" stroke-width="0.0" x1="456.0" x2="465.0" y1="276.0" y2="285.0" /><circle cx="456.0" cy="276.0" fill="rgb(230,69,69)" fill-opacity="0.7" r="3.5999999999999996" stroke="black" stroke-opacity="0.7" stroke-width="0.4" /><line stroke="black" stroke-opacity="0.1" stroke-width="0.0" x1="456.0" x2="447.0" y1="285.0" y2="294.0" /><line stroke="black" stroke-opacity="0.1" stroke-width="0.9" x1="456.0" x2="456.0" y1="285.0" y2="294.0" /><line stroke="black" stroke-opacity="0.1" stroke-width="0.0" x1="456.0" x2="465.0" y1="285.0" y2="294.0" /><circle cx="456.0" cy="285.0" fill="rgb(230,69,69)" fill-opacity="0.7" r="3.5999999999999996" stroke="black" stroke-opacity="0.7" stroke-width="0.4" /><line stroke="black" stroke-opacity="0.1" stroke-width="0.0" x1="456.0" x2="447.0" y1="294.0" y2="303.0" /><line stroke="black" stroke-opacity="0.1" stroke-width="0.9" x1="456.0" x2="456.0" y1="294.0" y2="303.0" /><line stroke="black" stroke-opacity="0.1" stroke-width="0.0" x1="456.0" x2="465.0" y1="294.0" y2="303.0" /><circle cx="456.0" cy="294.0" fill="rgb(230,69,69)" fill-opacity="0.7" r="3.5999999999999996" stroke="black" stroke-opacity="0.7" stroke-width="0.4" /><line stroke="black" stroke-opacity="0.1" stroke-width="0.0" x1="456.0" x2="447.0" y1="303.0" y2="312.0" /><line stroke="black" stroke-opacity="0.1" stroke-width="0.9" x1="456.0" x2="456.0" y1="303.0" y2="312.0" /><line stroke="black" stroke-opacity="0.1" stroke-width="0.0" x1="456.0" x2="465.0" y1="303.0" y2="312.0" /><circle cx="456.0" cy="303.0" fill="rgb(230,69,69)" fill-opacity="0.7" r="3.5999999999999996" stroke="black" stroke-opacity="0.7" stroke-width="0.4" /><line stroke="black" stroke-opacity="0.1" stroke-width="0.0" x1="456.0" x2="447.0" y1="312.0" y2="321.0" /><line stroke="black" stroke-opacity="0.1" stroke-width="0.9" x1="456.0" x2="456.0" y1="312.0" y2="321.0" /><line stroke="black" stroke-opacity="0.1" stroke-width="0.0" x1="456.0" x2="465.0" y1="312.0" y2="321.0" /><circle cx="456.0" cy="312.0" fill="rgb(230,69,69)" fill-opacity="0.7" r="3.5999999999999996" stroke="black" stroke-opacity="0.7" stroke-width="0.4" /><line stroke="black" stroke-opacity="0.1" stroke-width="0.0" x1="456.0" x2="447.0" y1="321.0" y2="330.0" /><line stroke="black" stroke-opacity="0.1" stroke-width="0.9" x1="456.0" x2="456.0" y1="321.0" y2="330.0" /><line stroke="black" stroke-opacity="0.1" stroke-width="0.0" x1="456.0" x2="465.0" y1="321.0" y2="330.0" /><circle cx="456.0" cy="321.0" fill="rgb(230,69,69)" fill-opacity="0.7" r="3.5999999999999996" stroke="black" stroke-opacity="0.7" stroke-width="0.4" /><line stroke="black" stroke-opacity="0.1" stroke-width="0.0" x1="456.0" x2="447.0" y1="330.0" y2="339.0" /><line stroke="black" stroke-opacity="0.1" stroke-width="0.9" x1="456.0" x2="456.0" y1="330.0" y2="339.0" /><line stroke="black" stroke-opacity="0.1" stroke-width="0.0" x1="456.0" x2="465.0" y1="330.0" y2="339.0" /><circle cx="456.0" cy="330.0" fill="rgb(230,69,69)" fill-opacity="0.7" r="3.5999999999999996" stroke="black" stroke-opacity="0.7" stroke-width="0.4" /><line stroke="black" stroke-opacity="0.1" stroke-width="0.0" x1="456.0" x2="447.0" y1="339.0" y2="348.0" /><line stroke="black" stroke-opacity="0.1" stroke-width="0.9" x1="456.0" x2="456.0" y1="339.0" y2="348.0" /><line stroke="black" stroke-opacity="0.1" stroke-width="0.0" x1="456.0" x2="465.0" y1="339.0" y2="348.0" /><circle cx="456.0" cy="339.0" fill="rgb(230,69,69)" fill-opacity="0.7" r="3.5999999999999996" stroke="black" stroke-opacity="0.7" stroke-width="0.4" /><line stroke="black" stroke-opacity="0.1" stroke-width="0.0" x1="456.0" x2="447.0" y1="348.0" y2="357.0" /><line stroke="black" stroke-opacity="0.1" stroke-width="0.9" x1="456.0" x2="456.0" y1="348.0" y2="357.0" /><line stroke="black" stroke-opacity="0.1" stroke-width="0.0" x1="456.0" x2="465.0" y1="348.0" y2="357.0" /><circle cx="456.0" cy="348.0" fill="rgb(230,69,69)" fill-opacity="0.7" r="3.5999999999999996" stroke="black" stroke-opacity="0.7" stroke-width="0.4" /><line stroke="black" stroke-opacity="0.1" stroke-width="0.0" x1="456.0" x2="447.0" y1="357.0" y2="366.0" /><line stroke="black" stroke-opacity="0.1" stroke-width="0.9" x1="456.0" x2="456.0" y1="357.0" y2="366.0" /><line stroke="black" stroke-opacity="0.1" stroke-width="0.0" x1="456.0" x2="465.0" y1="357.0" y2="366.0" /><circle cx="456.0" cy="357.0" fill="rgb(230,69,69)" fill-opacity="0.7" r="3.5999999999999996" stroke="black" stroke-opacity="0.7" stroke-width="0.4" /><line stroke="black" stroke-opacity="0.1" stroke-width="0.0" x1="456.0" x2="447.0" y1="366.0" y2="375.0" /><line stroke="black" stroke-opacity="0.1" stroke-width="0.9" x1="456.0" x2="456.0" y1="366.0" y2="375.0" /><line stroke="black" stroke-opacity="0.1" stroke-width="0.0" x1="456.0" x2="465.0" y1="366.0" y2="375.0" /><circle cx="456.0" cy="366.0" fill="rgb(230,69,69)" fill-opacity="0.7" r="3.5999999999999996" stroke="black" stroke-opacity="0.7" stroke-width="0.4" /><line stroke="black" stroke-opacity="0.1" stroke-width="0.0" x1="456.0" x2="447.0" y1="375.0" y2="384.0" /><line stroke="black" stroke-opacity="0.1" stroke-width="0.9" x1="456.0" x2="456.0" y1="375.0" y2="384.0" /><line stroke="black" stroke-opacity="0.1" stroke-width="0.0" x1="456.0" x2="465.0" y1="375.0" y2="384.0" /><circle cx="456.0" cy="375.0" fill="rgb(230,69,69)" fill-opacity="0.7" r="3.5999999999999996" stroke="black" stroke-opacity="0.7" stroke-width="0.4" /><line stroke="black" stroke-opacity="0.1" stroke-width="0.0" x1="456.0" x2="447.0" y1="384.0" y2="393.0" /><line stroke="black" stroke-opacity="0.1" stroke-width="0.9" x1="456.0" x2="456.0" y1="384.0" y2="393.0" /><line stroke="black" stroke-opacity="0.1" stroke-width="0.0" x1="456.0" x2="465.0" y1="384.0" y2="393.0" /><circle cx="456.0" cy="384.0" fill="rgb(230,69,69)" fill-opacity="0.7" r="3.5999999999999996" stroke="black" stroke-opacity="0.7" stroke-width="0.4" /><line stroke="black" stroke-opacity="0.1" stroke-width="0.0" x1="456.0" x2="447.0" y1="393.0" y2="402.0" /><line stroke="black" stroke-opacity="0.1" stroke-width="0.9" x1="456.0" x2="456.0" y1="393.0" y2="402.0" /><line stroke="black" stroke-opacity="0.1" stroke-width="0.0" x1="456.0" x2="465.0" y1="393.0" y2="402.0" /><circle cx="456.0" cy="393.0" fill="rgb(230,69,69)" fill-opacity="0.7" r="3.5999999999999996" stroke="black" stroke-opacity="0.7" stroke-width="0.4" /><line stroke="black" stroke-opacity="0.1" stroke-width="0.0" x1="456.0" x2="447.0" y1="402.0" y2="411.0" /><line stroke="black" stroke-opacity="0.1" stroke-width="0.9" x1="456.0" x2="456.0" y1="402.0" y2="411.0" /><line stroke="black" stroke-opacity="0.1" stroke-width="0.0" x1="456.0" x2="465.0" y1="402.0" y2="411.0" /><circle cx="456.0" cy="402.0" fill="rgb(230,69,69)" fill-opacity="0.7" r="3.5999999999999996" stroke="black" stroke-opacity="0.7" stroke-width="0.4" /><line stroke="black" stroke-opacity="0.1" stroke-width="0.0" x1="456.0" x2="447.0" y1="411.0" y2="420.0" /><line stroke="black" stroke-opacity="0.1" stroke-width="0.9" x1="456.0" x2="456.0" y1="411.0" y2="420.0" /><line stroke="black" stroke-opacity="0.1" stroke-width="0.0" x1="456.0" x2="465.0" y1="411.0" y2="420.0" /><circle cx="456.0" cy="411.0" fill="rgb(230,69,69)" fill-opacity="0.7" r="3.5999999999999996" stroke="black" stroke-opacity="0.7" stroke-width="0.4" /><line stroke="black" stroke-opacity="0.1" stroke-width="0.0" x1="456.0" x2="447.0" y1="420.0" y2="429.0" /><line stroke="black" stroke-opacity="0.1" stroke-width="0.9" x1="456.0" x2="456.0" y1="420.0" y2="429.0" /><line stroke="black" stroke-opacity="0.1" stroke-width="0.0" x1="456.0" x2="465.0" y1="420.0" y2="429.0" /><circle cx="456.0" cy="420.0" fill="rgb(230,69,69)" fill-opacity="0.7" r="3.5999999999999996" stroke="black" stroke-opacity="0.7" stroke-width="0.4" /><line stroke="black" stroke-opacity="0.1" stroke-width="0.0" x1="456.0" x2="447.0" y1="429.0" y2="438.0" /><line stroke="black" stroke-opacity="0.1" stroke-width="0.9" x1="456.0" x2="456.0" y1="429.0" y2="438.0" /><line stroke="black" stroke-opacity="0.1" stroke-width="0.0" x1="456.0" x2="465.0" y1="429.0" y2="438.0" /><circle cx="456.0" cy="429.0" fill="rgb(230,69,69)" fill-opacity="0.7" r="3.5999999999999996" stroke="black" stroke-opacity="0.7" stroke-width="0.4" /><line stroke="black" stroke-opacity="0.1" stroke-width="0.0" x1="456.0" x2="447.0" y1="438.0" y2="447.0" /><line stroke="black" stroke-opacity="0.1" stroke-width="0.9" x1="456.0" x2="456.0" y1="438.0" y2="447.0" /><line stroke="black" stroke-opacity="0.1" stroke-width="0.0" x1="456.0" x2="465.0" y1="438.0" y2="447.0" /><circle cx="456.0" cy="438.0" fill="rgb(230,69,69)" fill-opacity="0.7" r="3.5999999999999996" stroke="black" stroke-opacity="0.7" stroke-width="0.4" /><line stroke="black" stroke-opacity="0.1" stroke-width="0.0" x1="456.0" x2="447.0" y1="447.0" y2="456.0" /><line stroke="black" stroke-opacity="0.1" stroke-width="0.9" x1="456.0" x2="456.0" y1="447.0" y2="456.0" /><line stroke="black" stroke-opacity="0.1" stroke-width="0.0" x1="456.0" x2="465.0" y1="447.0" y2="456.0" /><circle cx="456.0" cy="447.0" fill="rgb(230,69,69)" fill-opacity="0.7" r="3.5999999999999996" stroke="black" stroke-opacity="0.7" stroke-width="0.4" /><line stroke="black" stroke-opacity="0.1" stroke-width="0.0" x1="456.0" x2="447.0" y1="456.0" y2="465.0" /><line stroke="black" stroke-opacity="0.1" stroke-width="0.9" x1="456.0" x2="456.0" y1="456.0" y2="465.0" /><line stroke="black" stroke-opacity="0.1" stroke-width="0.0" x1="456.0" x2="465.0" y1="456.0" y2="465.0" /><circle cx="456.0" cy="456.0" fill="rgb(230,69,69)" fill-opacity="0.7" r="3.5999999999999996" stroke="black" stroke-opacity="0.7" stroke-width="0.4" /><line stroke="black" stroke-opacity="0.1" stroke-width="0.0" x1="456.0" x2="447.0" y1="465.0" y2="474.0" /><line stroke="black" stroke-opacity="0.1" stroke-width="0.9" x1="456.0" x2="456.0" y1="465.0" y2="474.0" /><line stroke="black" stroke-opacity="0.1" stroke-width="0.0" x1="456.0" x2="465.0" y1="465.0" y2="474.0" /><circle cx="456.0" cy="465.0" fill="rgb(230,69,69)" fill-opacity="0.7" r="3.5999999999999996" stroke="black" stroke-opacity="0.7" stroke-width="0.4" /><line stroke="black" stroke-opacity="0.1" stroke-width="0.0" x1="456.0" x2="447.0" y1="474.0" y2="483.0" /><line stroke="black" stroke-opacity="0.1" stroke-width="0.9" x1="456.0" x2="456.0" y1="474.0" y2="483.0" /><line stroke="black" stroke-opacity="0.1" stroke-width="0.0" x1="456.0" x2="465.0" y1="474.0" y2="483.0" /><circle cx="456.0" cy="474.0" fill="rgb(230,69,69)" fill-opacity="0.7" r="3.5999999999999996" stroke="black" stroke-opacity="0.7" stroke-width="0.4" /><line stroke="black" stroke-opacity="0.1" stroke-width="0.0" x1="456.0" x2="447.0" y1="483.0" y2="492.0" /><line stroke="black" stroke-opacity="0.1" stroke-width="0.9" x1="456.0" x2="456.0" y1="483.0" y2="492.0" /><line stroke="black" stroke-opacity="0.1" stroke-width="0.0" x1="456.0" x2="465.0" y1="483.0" y2="492.0" /><circle cx="456.0" cy="483.0" fill="rgb(230,69,69)" fill-opacity="0.7" r="3.5999999999999996" stroke="black" stroke-opacity="0.7" stroke-width="0.4" /><line stroke="black" stroke-opacity="0.1" stroke-width="0.0" x1="456.0" x2="447.0" y1="492.0" y2="501.0" /><line stroke="black" stroke-opacity="0.1" stroke-width="0.9" x1="456.0" x2="456.0" y1="492.0" y2="501.0" /><line stroke="black" stroke-opacity="0.1" stroke-width="0.0" x1="456.0" x2="465.0" y1="492.0" y2="501.0" /><circle cx="456.0" cy="492.0" fill="rgb(230,69,69)" fill-opacity="0.7" r="3.5999999999999996" stroke="black" stroke-opacity="0.7" stroke-width="0.4" /><line stroke="black" stroke-opacity="0.1" stroke-width="0.0" x1="456.0" x2="447.0" y1="501.0" y2="510.0" /><line stroke="black" stroke-opacity="0.1" stroke-width="0.9" x1="456.0" x2="456.0" y1="501.0" y2="510.0" /><line stroke="black" stroke-opacity="0.1" stroke-width="0.0" x1="456.0" x2="465.0" y1="501.0" y2="510.0" /><circle cx="456.0" cy="501.0" fill="rgb(230,69,69)" fill-opacity="0.7" r="3.5999999999999996" stroke="black" stroke-opacity="0.7" stroke-width="0.4" /><line stroke="black" stroke-opacity="0.1" stroke-width="0.0" x1="456.0" x2="447.0" y1="510.0" y2="519.0" /><line stroke="black" stroke-opacity="0.1" stroke-width="0.9" x1="456.0" x2="456.0" y1="510.0" y2="519.0" /><line stroke="black" stroke-opacity="0.1" stroke-width="0.0" x1="456.0" x2="465.0" y1="510.0" y2="519.0" /><circle cx="456.0" cy="510.0" fill="rgb(230,69,69)" fill-opacity="0.7" r="3.5999999999999996" stroke="black" stroke-opacity="0.7" stroke-width="0.4" /><line stroke="black" stroke-opacity="0.1" stroke-width="0.0" x1="456.0" x2="447.0" y1="519.0" y2="528.0" /><line stroke="black" stroke-opacity="0.1" stroke-width="0.9" x1="456.0" x2="456.0" y1="519.0" y2="528.0" /><line stroke="black" stroke-opacity="0.1" stroke-width="0.0" x1="456.0" x2="465.0" y1="519.0" y2="528.0" /><circle cx="456.0" cy="519.0" fill="rgb(230,69,69)" fill-opacity="0.7" r="3.5999999999999996" stroke="black" stroke-opacity="0.7" stroke-width="0.4" /><line stroke="black" stroke-opacity="0.1" stroke-width="0.0" x1="456.0" x2="447.0" y1="528.0" y2="537.0" /><line stroke="black" stroke-opacity="0.1" stroke-width="0.9" x1="456.0" x2="456.0" y1="528.0" y2="537.0" /><line stroke="black" stroke-opacity="0.1" stroke-width="0.0" x1="456.0" x2="465.0" y1="528.0" y2="537.0" /><circle cx="456.0" cy="528.0" fill="rgb(230,69,69)" fill-opacity="0.7" r="3.5999999999999996" stroke="black" stroke-opacity="0.7" stroke-width="0.4" /><line stroke="black" stroke-opacity="0.1" stroke-width="0.0" x1="456.0" x2="447.0" y1="537.0" y2="546.0" /><line stroke="black" stroke-opacity="0.1" stroke-width="0.9" x1="456.0" x2="456.0" y1="537.0" y2="546.0" /><line stroke="black" stroke-opacity="0.1" stroke-width="0.0" x1="456.0" x2="465.0" y1="537.0" y2="546.0" /><circle cx="456.0" cy="537.0" fill="rgb(230,69,69)" fill-opacity="0.7" r="3.5999999999999996" stroke="black" stroke-opacity="0.7" stroke-width="0.4" /><line stroke="black" stroke-opacity="0.1" stroke-width="0.0" x1="456.0" x2="447.0" y1="546.0" y2="555.0" /><line stroke="black" stroke-opacity="0.1" stroke-width="0.9" x1="456.0" x2="456.0" y1="546.0" y2="555.0" /><line stroke="black" stroke-opacity="0.1" stroke-width="0.0" x1="456.0" x2="465.0" y1="546.0" y2="555.0" /><circle cx="456.0" cy="546.0" fill="rgb(230,69,69)" fill-opacity="0.7" r="3.5999999999999996" stroke="black" stroke-opacity="0.7" stroke-width="0.4" /><line stroke="black" stroke-opacity="0.1" stroke-width="0.0" x1="456.0" x2="447.0" y1="555.0" y2="564.0" /><line stroke="black" stroke-opacity="0.1" stroke-width="0.9" x1="456.0" x2="456.0" y1="555.0" y2="564.0" /><line stroke="black" stroke-opacity="0.1" stroke-width="0.0" x1="456.0" x2="465.0" y1="555.0" y2="564.0" /><circle cx="456.0" cy="555.0" fill="rgb(230,69,69)" fill-opacity="0.7" r="3.5999999999999996" stroke="black" stroke-opacity="0.7" stroke-width="0.4" /><line stroke="black" stroke-opacity="0.1" stroke-width="0.0" x1="456.0" x2="447.0" y1="564.0" y2="573.0" /><line stroke="black" stroke-opacity="0.1" stroke-width="0.9" x1="456.0" x2="456.0" y1="564.0" y2="573.0" /><line stroke="black" stroke-opacity="0.1" stroke-width="0.0" x1="456.0" x2="465.0" y1="564.0" y2="573.0" /><circle cx="456.0" cy="564.0" fill="rgb(230,69,69)" fill-opacity="0.7" r="3.5999999999999996" stroke="black" stroke-opacity="0.7" stroke-width="0.4" /><line stroke="black" stroke-opacity="0.1" stroke-width="0.0" x1="456.0" x2="447.0" y1="573.0" y2="582.0" /><line stroke="black" stroke-opacity="0.1" stroke-width="0.9" x1="456.0" x2="456.0" y1="573.0" y2="582.0" /><line stroke="black" stroke-opacity="0.1" stroke-width="0.0" x1="456.0" x2="465.0" y1="573.0" y2="582.0" /><circle cx="456.0" cy="573.0" fill="rgb(230,69,69)" fill-opacity="0.7" r="3.5999999999999996" stroke="black" stroke-opacity="0.7" stroke-width="0.4" /><line stroke="black" stroke-opacity="0.1" stroke-width="0.0" x1="456.0" x2="447.0" y1="582.0" y2="591.0" /><line stroke="black" stroke-opacity="0.1" stroke-width="0.9" x1="456.0" x2="456.0" y1="582.0" y2="591.0" /><line stroke="black" stroke-opacity="0.1" stroke-width="0.0" x1="456.0" x2="465.0" y1="582.0" y2="591.0" /><circle cx="456.0" cy="582.0" fill="rgb(230,69,69)" fill-opacity="0.7" r="3.5999999999999996" stroke="black" stroke-opacity="0.7" stroke-width="0.4" /><line stroke="black" stroke-opacity="0.1" stroke-width="0.0" x1="456.0" x2="447.0" y1="591.0" y2="600.0" /><line stroke="black" stroke-opacity="0.1" stroke-width="0.9" x1="456.0" x2="456.0" y1="591.0" y2="600.0" /><line stroke="black" stroke-opacity="0.1" stroke-width="0.0" x1="456.0" x2="465.0" y1="591.0" y2="600.0" /><circle cx="456.0" cy="591.0" fill="rgb(230,69,69)" fill-opacity="0.7" r="3.5999999999999996" stroke="black" stroke-opacity="0.7" stroke-width="0.4" /><line stroke="black" stroke-opacity="0.1" stroke-width="0.0" x1="456.0" x2="447.0" y1="600.0" y2="609.0" /><line stroke="black" stroke-opacity="0.1" stroke-width="0.9" x1="456.0" x2="456.0" y1="600.0" y2="609.0" /><line stroke="black" stroke-opacity="0.1" stroke-width="0.0" x1="456.0" x2="465.0" y1="600.0" y2="609.0" /><circle cx="456.0" cy="600.0" fill="rgb(230,69,69)" fill-opacity="0.7" r="3.5999999999999996" stroke="black" stroke-opacity="0.7" stroke-width="0.4" /><line stroke="black" stroke-opacity="0.1" stroke-width="0.0" x1="456.0" x2="447.0" y1="609.0" y2="618.0" /><line stroke="black" stroke-opacity="0.1" stroke-width="0.9" x1="456.0" x2="456.0" y1="609.0" y2="618.0" /><line stroke="black" stroke-opacity="0.1" stroke-width="0.0" x1="456.0" x2="465.0" y1="609.0" y2="618.0" /><circle cx="456.0" cy="609.0" fill="rgb(230,69,69)" fill-opacity="0.7" r="3.5999999999999996" stroke="black" stroke-opacity="0.7" stroke-width="0.4" /><line stroke="black" stroke-opacity="0.1" stroke-width="0.0" x1="456.0" x2="447.0" y1="618.0" y2="627.0" /><line stroke="black" stroke-opacity="0.1" stroke-width="0.9" x1="456.0" x2="456.0" y1="618.0" y2="627.0" /><line stroke="black" stroke-opacity="0.1" stroke-width="0.0" x1="456.0" x2="465.0" y1="618.0" y2="627.0" /><circle cx="456.0" cy="618.0" fill="rgb(230,69,69)" fill-opacity="0.7" r="3.5999999999999996" stroke="black" stroke-opacity="0.7" stroke-width="0.4" /><line stroke="black" stroke-opacity="0.1" stroke-width="0.0" x1="456.0" x2="447.0" y1="627.0" y2="636.0" /><line stroke="black" stroke-opacity="0.1" stroke-width="0.9" x1="456.0" x2="456.0" y1="627.0" y2="636.0" /><line stroke="black" stroke-opacity="0.1" stroke-width="0.0" x1="456.0" x2="465.0" y1="627.0" y2="636.0" /><circle cx="456.0" cy="627.0" fill="rgb(230,69,69)" fill-opacity="0.7" r="3.5999999999999996" stroke="black" stroke-opacity="0.7" stroke-width="0.4" /><line stroke="black" stroke-opacity="0.1" stroke-width="0.0" x1="456.0" x2="447.0" y1="636.0" y2="645.0" /><line stroke="black" stroke-opacity="0.1" stroke-width="0.9" x1="456.0" x2="456.0" y1="636.0" y2="645.0" /><line stroke="black" stroke-opacity="0.1" stroke-width="0.0" x1="456.0" x2="465.0" y1="636.0" y2="645.0" /><circle cx="456.0" cy="636.0" fill="rgb(230,69,69)" fill-opacity="0.7" r="3.5999999999999996" stroke="black" stroke-opacity="0.7" stroke-width="0.4" /><line stroke="black" stroke-opacity="0.1" stroke-width="0.0" x1="456.0" x2="447.0" y1="645.0" y2="654.0" /><line stroke="black" stroke-opacity="0.1" stroke-width="0.9" x1="456.0" x2="456.0" y1="645.0" y2="654.0" /><line stroke="black" stroke-opacity="0.1" stroke-width="0.0" x1="456.0" x2="465.0" y1="645.0" y2="654.0" /><circle cx="456.0" cy="645.0" fill="rgb(230,69,69)" fill-opacity="0.7" r="3.5999999999999996" stroke="black" stroke-opacity="0.7" stroke-width="0.4" /><line stroke="black" stroke-opacity="0.1" stroke-width="0.0" x1="456.0" x2="447.0" y1="654.0" y2="663.0" /><line stroke="black" stroke-opacity="0.1" stroke-width="0.9" x1="456.0" x2="456.0" y1="654.0" y2="663.0" /><line stroke="black" stroke-opacity="0.1" stroke-width="0.0" x1="456.0" x2="465.0" y1="654.0" y2="663.0" /><circle cx="456.0" cy="654.0" fill="rgb(230,69,69)" fill-opacity="0.7" r="3.5999999999999996" stroke="black" stroke-opacity="0.7" stroke-width="0.4" /><line stroke="black" stroke-opacity="0.1" stroke-width="0.0" x1="456.0" x2="447.0" y1="663.0" y2="672.0" /><line stroke="black" stroke-opacity="0.1" stroke-width="0.9" x1="456.0" x2="456.0" y1="663.0" y2="672.0" /><line stroke="black" stroke-opacity="0.1" stroke-width="0.0" x1="456.0" x2="465.0" y1="663.0" y2="672.0" /><circle cx="456.0" cy="663.0" fill="rgb(230,69,69)" fill-opacity="0.7" r="3.5999999999999996" stroke="black" stroke-opacity="0.7" stroke-width="0.4" /><line stroke="black" stroke-opacity="0.1" stroke-width="0.0" x1="456.0" x2="447.0" y1="672.0" y2="681.0" /><line stroke="black" stroke-opacity="0.1" stroke-width="0.9" x1="456.0" x2="456.0" y1="672.0" y2="681.0" /><line stroke="black" stroke-opacity="0.1" stroke-width="0.0" x1="456.0" x2="465.0" y1="672.0" y2="681.0" /><circle cx="456.0" cy="672.0" fill="rgb(230,69,69)" fill-opacity="0.7" r="3.5999999999999996" stroke="black" stroke-opacity="0.7" stroke-width="0.4" /><line stroke="black" stroke-opacity="0.1" stroke-width="0.0" x1="456.0" x2="447.0" y1="681.0" y2="690.0" /><line stroke="black" stroke-opacity="0.1" stroke-width="0.9" x1="456.0" x2="456.0" y1="681.0" y2="690.0" /><line stroke="black" stroke-opacity="0.1" stroke-width="0.0" x1="456.0" x2="465.0" y1="681.0" y2="690.0" /><circle cx="456.0" cy="681.0" fill="rgb(230,69,69)" fill-opacity="0.7" r="3.5999999999999996" stroke="black" stroke-opacity="0.7" stroke-width="0.4" /><line stroke="black" stroke-opacity="0.1" stroke-width="0.0" x1="456.0" x2="447.0" y1="690.0" y2="699.0" /><line stroke="black" stroke-opacity="0.1" stroke-width="0.9" x1="456.0" x2="456.0" y1="690.0" y2="699.0" /><line stroke="black" stroke-opacity="0.1" stroke-width="0.0" x1="456.0" x2="465.0" y1="690.0" y2="699.0" /><circle cx="456.0" cy="690.0" fill="rgb(230,69,69)" fill-opacity="0.7" r="3.5999999999999996" stroke="black" stroke-opacity="0.7" stroke-width="0.4" /><line stroke="black" stroke-opacity="0.1" stroke-width="0.0" x1="456.0" x2="447.0" y1="699.0" y2="708.0" /><line stroke="black" stroke-opacity="0.1" stroke-width="0.9" x1="456.0" x2="456.0" y1="699.0" y2="708.0" /><line stroke="black" stroke-opacity="0.1" stroke-width="0.0" x1="456.0" x2="465.0" y1="699.0" y2="708.0" /><circle cx="456.0" cy="699.0" fill="rgb(230,69,69)" fill-opacity="0.7" r="3.5999999999999996" stroke="black" stroke-opacity="0.7" stroke-width="0.4" /><line stroke="black" stroke-opacity="0.1" stroke-width="0.0" x1="456.0" x2="447.0" y1="708.0" y2="717.0" /><line stroke="black" stroke-opacity="0.1" stroke-width="0.9" x1="456.0" x2="456.0" y1="708.0" y2="717.0" /><line stroke="black" stroke-opacity="0.1" stroke-width="0.0" x1="456.0" x2="465.0" y1="708.0" y2="717.0" /><circle cx="456.0" cy="708.0" fill="rgb(230,69,69)" fill-opacity="0.7" r="3.5999999999999996" stroke="black" stroke-opacity="0.7" stroke-width="0.4" /><line stroke="black" stroke-opacity="0.1" stroke-width="0.0" x1="456.0" x2="447.0" y1="717.0" y2="726.0" /><line stroke="black" stroke-opacity="0.1" stroke-width="0.9" x1="456.0" x2="456.0" y1="717.0" y2="726.0" /><line stroke="black" stroke-opacity="0.1" stroke-width="0.0" x1="456.0" x2="465.0" y1="717.0" y2="726.0" /><circle cx="456.0" cy="717.0" fill="rgb(230,69,69)" fill-opacity="0.7" r="3.5999999999999996" stroke="black" stroke-opacity="0.7" stroke-width="0.4" /><line stroke="black" stroke-opacity="0.1" stroke-width="0.0" x1="456.0" x2="447.0" y1="726.0" y2="735.0" /><line stroke="black" stroke-opacity="0.1" stroke-width="0.9" x1="456.0" x2="456.0" y1="726.0" y2="735.0" /><line stroke="black" stroke-opacity="0.1" stroke-width="0.0" x1="456.0" x2="465.0" y1="726.0" y2="735.0" /><circle cx="456.0" cy="726.0" fill="rgb(230,69,69)" fill-opacity="0.7" r="3.5999999999999996" stroke="black" stroke-opacity="0.7" stroke-width="0.4" /><line stroke="black" stroke-opacity="0.1" stroke-width="0.0" x1="456.0" x2="447.0" y1="735.0" y2="744.0" /><line stroke="black" stroke-opacity="0.1" stroke-width="0.9" x1="456.0" x2="456.0" y1="735.0" y2="744.0" /><line stroke="black" stroke-opacity="0.1" stroke-width="0.0" x1="456.0" x2="465.0" y1="735.0" y2="744.0" /><circle cx="456.0" cy="735.0" fill="rgb(230,69,69)" fill-opacity="0.7" r="3.5999999999999996" stroke="black" stroke-opacity="0.7" stroke-width="0.4" /><line stroke="black" stroke-opacity="0.1" stroke-width="0.0" x1="456.0" x2="447.0" y1="744.0" y2="753.0" /><line stroke="black" stroke-opacity="0.1" stroke-width="0.9" x1="456.0" x2="456.0" y1="744.0" y2="753.0" /><line stroke="black" stroke-opacity="0.1" stroke-width="0.0" x1="456.0" x2="465.0" y1="744.0" y2="753.0" /><circle cx="456.0" cy="744.0" fill="rgb(230,69,69)" fill-opacity="0.7" r="3.5999999999999996" stroke="black" stroke-opacity="0.7" stroke-width="0.4" /><line stroke="black" stroke-opacity="0.1" stroke-width="0.0" x1="456.0" x2="447.0" y1="753.0" y2="762.0" /><line stroke="black" stroke-opacity="0.1" stroke-width="0.9" x1="456.0" x2="456.0" y1="753.0" y2="762.0" /><line stroke="black" stroke-opacity="0.1" stroke-width="0.0" x1="456.0" x2="465.0" y1="753.0" y2="762.0" /><circle cx="456.0" cy="753.0" fill="rgb(230,69,69)" fill-opacity="0.7" r="3.5999999999999996" stroke="black" stroke-opacity="0.7" stroke-width="0.4" /><line stroke="black" stroke-opacity="0.1" stroke-width="0.0" x1="456.0" x2="447.0" y1="762.0" y2="771.0" /><line stroke="black" stroke-opacity="0.1" stroke-width="0.9" x1="456.0" x2="456.0" y1="762.0" y2="771.0" /><line stroke="black" stroke-opacity="0.1" stroke-width="0.0" x1="456.0" x2="465.0" y1="762.0" y2="771.0" /><circle cx="456.0" cy="762.0" fill="rgb(230,69,69)" fill-opacity="0.7" r="3.5999999999999996" stroke="black" stroke-opacity="0.7" stroke-width="0.4" /><line stroke="black" stroke-opacity="0.1" stroke-width="0.0" x1="456.0" x2="447.0" y1="771.0" y2="780.0" /><line stroke="black" stroke-opacity="0.1" stroke-width="0.9" x1="456.0" x2="456.0" y1="771.0" y2="780.0" /><line stroke="black" stroke-opacity="0.1" stroke-width="0.0" x1="456.0" x2="465.0" y1="771.0" y2="780.0" /><circle cx="456.0" cy="771.0" fill="rgb(230,69,69)" fill-opacity="0.7" r="3.5999999999999996" stroke="black" stroke-opacity="0.7" stroke-width="0.4" /><line stroke="black" stroke-opacity="0.1" stroke-width="0.0" x1="456.0" x2="447.0" y1="780.0" y2="789.0" /><line stroke="black" stroke-opacity="0.1" stroke-width="0.9" x1="456.0" x2="456.0" y1="780.0" y2="789.0" /><line stroke="black" stroke-opacity="0.1" stroke-width="0.0" x1="456.0" x2="465.0" y1="780.0" y2="789.0" /><circle cx="456.0" cy="780.0" fill="rgb(230,69,69)" fill-opacity="0.7" r="3.5999999999999996" stroke="black" stroke-opacity="0.7" stroke-width="0.4" /><line stroke="black" stroke-opacity="0.1" stroke-width="0.0" x1="456.0" x2="447.0" y1="789.0" y2="798.0" /><line stroke="black" stroke-opacity="0.1" stroke-width="0.9" x1="456.0" x2="456.0" y1="789.0" y2="798.0" /><line stroke="black" stroke-opacity="0.1" stroke-width="0.0" x1="456.0" x2="465.0" y1="789.0" y2="798.0" /><circle cx="456.0" cy="789.0" fill="rgb(230,69,69)" fill-opacity="0.7" r="3.5999999999999996" stroke="black" stroke-opacity="0.7" stroke-width="0.4" /><line stroke="black" stroke-opacity="0.1" stroke-width="0.0" x1="456.0" x2="447.0" y1="798.0" y2="807.0" /><line stroke="black" stroke-opacity="0.1" stroke-width="0.9" x1="456.0" x2="456.0" y1="798.0" y2="807.0" /><line stroke="black" stroke-opacity="0.1" stroke-width="0.0" x1="456.0" x2="465.0" y1="798.0" y2="807.0" /><circle cx="456.0" cy="798.0" fill="rgb(230,69,69)" fill-opacity="0.7" r="3.5999999999999996" stroke="black" stroke-opacity="0.7" stroke-width="0.4" /><line stroke="black" stroke-opacity="0.1" stroke-width="0.0" x1="456.0" x2="447.0" y1="807.0" y2="816.0" /><line stroke="black" stroke-opacity="0.1" stroke-width="0.9" x1="456.0" x2="456.0" y1="807.0" y2="816.0" /><line stroke="black" stroke-opacity="0.1" stroke-width="0.0" x1="456.0" x2="465.0" y1="807.0" y2="816.0" /><circle cx="456.0" cy="807.0" fill="rgb(230,69,69)" fill-opacity="0.7" r="3.5999999999999996" stroke="black" stroke-opacity="0.7" stroke-width="0.4" /><line stroke="black" stroke-opacity="0.1" stroke-width="0.0" x1="456.0" x2="447.0" y1="816.0" y2="825.0" /><line stroke="black" stroke-opacity="0.1" stroke-width="0.9" x1="456.0" x2="456.0" y1="816.0" y2="825.0" /><line stroke="black" stroke-opacity="0.1" stroke-width="0.0" x1="456.0" x2="465.0" y1="816.0" y2="825.0" /><circle cx="456.0" cy="816.0" fill="rgb(230,69,69)" fill-opacity="0.7" r="3.5999999999999996" stroke="black" stroke-opacity="0.7" stroke-width="0.4" /><line stroke="black" stroke-opacity="0.1" stroke-width="0.0" x1="456.0" x2="447.0" y1="825.0" y2="834.0" /><line stroke="black" stroke-opacity="0.1" stroke-width="0.9" x1="456.0" x2="456.0" y1="825.0" y2="834.0" /><line stroke="black" stroke-opacity="0.1" stroke-width="0.0" x1="456.0" x2="465.0" y1="825.0" y2="834.0" /><circle cx="456.0" cy="825.0" fill="rgb(230,69,69)" fill-opacity="0.7" r="3.5999999999999996" stroke="black" stroke-opacity="0.7" stroke-width="0.4" /><line stroke="black" stroke-opacity="0.1" stroke-width="0.0" x1="456.0" x2="447.0" y1="834.0" y2="843.0" /><line stroke="black" stroke-opacity="0.1" stroke-width="0.9" x1="456.0" x2="456.0" y1="834.0" y2="843.0" /><line stroke="black" stroke-opacity="0.1" stroke-width="0.0" x1="456.0" x2="465.0" y1="834.0" y2="843.0" /><circle cx="456.0" cy="834.0" fill="rgb(230,69,69)" fill-opacity="0.7" r="3.5999999999999996" stroke="black" stroke-opacity="0.7" stroke-width="0.4" /><line stroke="black" stroke-opacity="0.1" stroke-width="0.0" x1="456.0" x2="447.0" y1="843.0" y2="852.0" /><line stroke="black" stroke-opacity="0.1" stroke-width="0.9" x1="456.0" x2="456.0" y1="843.0" y2="852.0" /><line stroke="black" stroke-opacity="0.1" stroke-width="0.0" x1="456.0" x2="465.0" y1="843.0" y2="852.0" /><circle cx="456.0" cy="843.0" fill="rgb(230,69,69)" fill-opacity="0.7" r="3.5999999999999996" stroke="black" stroke-opacity="0.7" stroke-width="0.4" /><line stroke="black" stroke-opacity="0.1" stroke-width="0.0" x1="456.0" x2="447.0" y1="852.0" y2="861.0" /><line stroke="black" stroke-opacity="0.1" stroke-width="0.9" x1="456.0" x2="456.0" y1="852.0" y2="861.0" /><line stroke="black" stroke-opacity="0.1" stroke-width="0.0" x1="456.0" x2="465.0" y1="852.0" y2="861.0" /><circle cx="456.0" cy="852.0" fill="rgb(230,69,69)" fill-opacity="0.7" r="3.5999999999999996" stroke="black" stroke-opacity="0.7" stroke-width="0.4" /><line stroke="black" stroke-opacity="0.1" stroke-width="0.0" x1="456.0" x2="447.0" y1="861.0" y2="870.0" /><line stroke="black" stroke-opacity="0.1" stroke-width="0.9" x1="456.0" x2="456.0" y1="861.0" y2="870.0" /><line stroke="black" stroke-opacity="0.1" stroke-width="0.0" x1="456.0" x2="465.0" y1="861.0" y2="870.0" /><circle cx="456.0" cy="861.0" fill="rgb(230,69,69)" fill-opacity="0.7" r="3.5999999999999996" stroke="black" stroke-opacity="0.7" stroke-width="0.4" /><line stroke="black" stroke-opacity="0.1" stroke-width="0.0" x1="456.0" x2="447.0" y1="870.0" y2="879.0" /><line stroke="black" stroke-opacity="0.1" stroke-width="0.9" x1="456.0" x2="456.0" y1="870.0" y2="879.0" /><line stroke="black" stroke-opacity="0.1" stroke-width="0.0" x1="456.0" x2="465.0" y1="870.0" y2="879.0" /><circle cx="456.0" cy="870.0" fill="rgb(230,69,69)" fill-opacity="0.7" r="3.5999999999999996" stroke="black" stroke-opacity="0.7" stroke-width="0.4" /><line stroke="black" stroke-opacity="0.1" stroke-width="0.0" x1="456.0" x2="447.0" y1="879.0" y2="888.0" /><line stroke="black" stroke-opacity="0.1" stroke-width="0.9" x1="456.0" x2="456.0" y1="879.0" y2="888.0" /><line stroke="black" stroke-opacity="0.1" stroke-width="0.0" x1="456.0" x2="465.0" y1="879.0" y2="888.0" /><circle cx="456.0" cy="879.0" fill="rgb(230,69,69)" fill-opacity="0.7" r="3.5999999999999996" stroke="black" stroke-opacity="0.7" stroke-width="0.4" /><line stroke="black" stroke-opacity="0.1" stroke-width="0.0" x1="456.0" x2="447.0" y1="888.0" y2="897.0" /><line stroke="black" stroke-opacity="0.1" stroke-width="0.9" x1="456.0" x2="456.0" y1="888.0" y2="897.0" /><line stroke="black" stroke-opacity="0.1" stroke-width="0.0" x1="456.0" x2="465.0" y1="888.0" y2="897.0" /><circle cx="456.0" cy="888.0" fill="rgb(230,69,69)" fill-opacity="0.7" r="3.5999999999999996" stroke="black" stroke-opacity="0.7" stroke-width="0.4" /><line stroke="black" stroke-opacity="0.1" stroke-width="0.0" x1="456.0" x2="447.0" y1="897.0" y2="906.0" /><line stroke="black" stroke-opacity="0.1" stroke-width="0.9" x1="456.0" x2="456.0" y1="897.0" y2="906.0" /><line stroke="black" stroke-opacity="0.1" stroke-width="0.0" x1="456.0" x2="465.0" y1="897.0" y2="906.0" /><circle cx="456.0" cy="897.0" fill="rgb(230,69,69)" fill-opacity="0.7" r="3.5999999999999996" stroke="black" stroke-opacity="0.7" stroke-width="0.4" /><circle cx="456.0" cy="906.0" fill="rgb(230,69,69)" fill-opacity="0.7" r="3.5999999999999996" stroke="black" stroke-opacity="0.7" stroke-width="0.4" /></svg>